<svg width="237" height="237" viewBox="0 0 237 237" fill="none" xmlns="http://www.w3.org/2000/svg">
<path d="M15.5547 136.302V81.1992H27.1084C32.6631 81.1992 37.0328 81.7177 40.2175 82.8286C43.6984 83.8655 46.8091 85.717 49.6234 88.3092C55.3263 93.4936 58.1406 100.307 58.1406 108.75C58.1406 117.194 55.1781 124.081 49.2531 129.34C46.2906 131.932 43.18 133.784 39.9213 134.82C36.8847 135.857 32.5891 136.376 26.9603 136.376H15.5547V136.302ZM23.9237 128.525H27.7009C31.4041 128.525 34.5147 128.155 37.0328 127.34C39.4769 126.525 41.7728 125.192 43.7725 123.415C47.8459 119.712 49.9197 114.824 49.9197 108.825C49.9197 102.751 47.92 97.8633 43.8466 94.0861C40.2175 90.7533 34.8109 89.0498 27.775 89.0498H23.9978V128.525H23.9237Z" fill="#E62278"/>
<path d="M65.918 87.1243C65.918 85.7171 66.4364 84.5321 67.4733 83.4953C68.5102 82.4584 69.6952 81.9399 71.1764 81.9399C72.6577 81.9399 73.8427 82.4584 74.8795 83.4953C75.9164 84.4581 76.4348 85.7171 76.4348 87.1984C76.4348 88.6796 75.9164 89.8646 74.8795 90.9015C73.7686 92.0865 72.3614 92.5309 70.658 92.3828C69.6952 92.3087 68.7323 91.9384 67.9917 91.2718C66.5845 90.1609 65.918 88.7537 65.918 87.1243ZM75.1758 101.567V136.302H67.103V101.567H75.1758Z" fill="#E62278"/>
<path d="M118.945 135.487C118.945 137.116 118.871 138.598 118.797 139.857C118.723 141.116 118.575 142.227 118.353 143.19C117.76 145.782 116.649 148.078 115.02 149.929C111.909 153.558 107.54 155.336 102.059 155.336C97.393 155.336 93.6158 154.077 90.5792 151.559C87.4686 148.966 85.6911 145.411 85.2467 140.894H93.3195C93.6158 142.597 94.1342 143.93 94.8748 144.893C96.5042 147.041 98.9483 148.152 102.133 148.152C107.984 148.152 110.946 144.523 110.946 137.339V132.451C107.762 135.709 104.059 137.339 99.9111 137.339C95.1711 137.339 91.3198 135.635 88.2833 132.228C85.2467 128.747 83.6914 124.378 83.6914 119.193C83.6914 114.157 85.0986 109.787 87.913 106.306C90.9495 102.529 94.9489 100.678 99.9852 100.678C104.355 100.678 107.984 102.307 110.872 105.566V101.641H118.871V135.487H118.945ZM111.243 118.971C111.243 115.564 110.354 112.898 108.502 110.898C106.651 108.825 104.355 107.788 101.466 107.788C98.4298 107.788 95.9858 108.899 94.2823 111.195C92.653 113.194 91.9123 115.861 91.9123 119.045C91.9123 122.23 92.727 124.822 94.2823 126.822C95.9858 129.044 98.4298 130.155 101.466 130.155C104.503 130.155 106.947 129.044 108.725 126.822C110.428 124.748 111.243 122.156 111.243 118.971Z" fill="#E62278"/>
<path d="M127.906 87.1243C127.906 85.7171 128.425 84.5321 129.462 83.4953C130.498 82.4584 131.683 81.9399 133.165 81.9399C134.646 81.9399 135.831 82.4584 136.868 83.4953C137.905 84.4581 138.423 85.7171 138.423 87.1984C138.423 88.6796 137.905 89.8646 136.868 90.9015C135.757 92.0865 134.35 92.5309 132.646 92.3828C131.683 92.3087 130.721 91.9384 129.98 91.2718C128.499 90.1609 127.906 88.7537 127.906 87.1243ZM137.09 101.567V136.302H129.091V101.567H137.09Z" fill="#E62278"/>
<path d="M150.2 109.195H145.09V101.492H159.236V136.376H150.2V109.195Z" fill="#211C50"/>
<path d="M173.309 136.376L183.233 124.97H183.085C182.196 125.489 181.53 125.785 180.937 125.933C180.419 126.007 179.9 126.081 179.456 126.081C177.752 126.081 176.197 125.785 174.79 125.118C173.383 124.452 172.124 123.563 171.087 122.452C170.05 121.341 169.235 120.008 168.643 118.527C168.05 117.046 167.754 115.416 167.754 113.639C167.754 111.787 168.124 110.084 168.791 108.454C169.457 106.899 170.42 105.492 171.753 104.307C173.012 103.122 174.568 102.159 176.419 101.492C178.271 100.826 180.27 100.456 182.566 100.456C184.862 100.456 186.936 100.826 188.788 101.492C190.639 102.159 192.12 103.122 193.454 104.233C194.713 105.418 195.675 106.751 196.416 108.306C197.083 109.862 197.453 111.491 197.453 113.268C197.453 115.268 197.009 117.342 196.12 119.638C195.231 121.934 193.898 124.156 192.046 126.377L183.974 136.154H173.309V136.376ZM188.343 113.565C188.343 112.75 188.195 112.009 187.899 111.343C187.603 110.676 187.158 110.01 186.64 109.491C186.121 108.973 185.529 108.528 184.788 108.232C184.122 107.936 183.381 107.788 182.566 107.788C181.752 107.788 181.011 107.936 180.345 108.232C179.678 108.528 179.011 108.973 178.493 109.491C177.975 110.01 177.53 110.602 177.234 111.343C176.938 112.009 176.79 112.75 176.79 113.565C176.79 114.379 176.938 115.12 177.234 115.787C177.53 116.453 177.975 117.12 178.493 117.638C179.011 118.156 179.604 118.601 180.345 118.897C181.011 119.193 181.752 119.342 182.566 119.342C183.381 119.342 184.122 119.193 184.788 118.897C185.455 118.601 186.121 118.156 186.64 117.638C187.158 117.12 187.603 116.527 187.899 115.787C188.121 115.046 188.343 114.305 188.343 113.565Z" fill="#211C50"/>
<path d="M224.114 109.195H212.042L211.45 113.046C211.968 112.972 212.487 112.898 213.005 112.898C213.449 112.824 213.968 112.824 214.412 112.824C216.19 112.824 217.819 113.12 219.3 113.713C220.782 114.305 222.115 115.194 223.152 116.231C224.262 117.342 225.077 118.601 225.67 120.082C226.262 121.563 226.558 123.267 226.558 125.044C226.558 126.896 226.188 128.599 225.522 130.155C224.855 131.636 223.818 132.969 222.559 134.006C221.3 135.043 219.745 135.857 217.967 136.45C216.19 137.042 214.116 137.339 211.894 137.339C209.82 137.339 207.821 137.116 205.895 136.598C203.969 136.08 202.192 135.339 200.562 134.228L201.896 125.711C203.451 127.044 205.006 128.081 206.636 128.747C208.265 129.414 209.746 129.784 211.228 129.784C213.523 129.784 215.227 129.044 216.338 127.488C216.93 126.674 217.227 125.711 217.227 124.748C217.301 122.97 216.56 121.489 215.079 120.452C213.598 119.415 211.746 118.823 209.376 118.823C208.339 118.823 207.228 118.971 206.117 119.193C205.006 119.415 203.895 119.786 202.858 120.304L205.747 101.566H223.966V109.195H224.114Z" fill="#211C50"/>
<path d="M226.634 147.115H191.898V155.113H226.634V147.115Z" fill="#E62278"/>
</svg>
