<svg width="43" height="43" viewBox="0 0 43 43" fill="none" xmlns="http://www.w3.org/2000/svg">
<path d="M3.83261 8.2873C4.68522 8.2873 5.34837 8.47955 6.07467 8.832L6.26414 5.724H16.085V0.469238H0.958984V9.02425C1.8116 8.54363 2.79053 8.2873 3.83261 8.2873Z" fill="#211C50"/>
<path d="M21.1375 11.4918C19.4954 11.4597 17.8534 11.4918 16.2113 11.4918C14.6324 11.4918 13.0535 11.4918 11.5061 11.4918V16.8427C14.7271 16.8427 17.8218 16.7786 20.8849 16.8747C23.4427 16.9388 25.3374 19.0855 25.2743 21.5848C25.1795 24.1481 23.0322 26.0385 20.4428 25.9744C18.0744 25.9103 15.706 25.9744 13.3693 25.9744C11.0325 25.9744 8.66409 25.9744 6.26414 25.9744V19.47C5.53784 19.8225 4.7168 20.0147 3.83261 20.0147C2.79053 20.0147 1.8116 19.7264 0.958984 19.2458C0.958984 23.2509 0.958984 27.224 0.958984 31.1971C1.24319 31.2612 1.40108 31.3253 1.52739 31.3253C8.15884 31.3253 14.7587 31.3894 21.3901 31.2933C26.1269 31.2292 30.8005 26.9357 30.611 20.8478C30.4847 15.9776 26.1585 11.652 21.1375 11.4918Z" fill="#211C50"/>
<path d="M9.92851 37.0928H4.78125V42.4437H9.92851V37.0928Z" fill="#E62278"/>
<path d="M17.5699 5.69226C19 5.69226 20.1593 4.51594 20.1593 3.06488C20.1593 1.61382 19 0.4375 17.5699 0.4375C16.1398 0.4375 14.9805 1.61382 14.9805 3.06488C14.9805 4.51594 16.1398 5.69226 17.5699 5.69226Z" fill="#E62278"/>
<path d="M17.5696 6.04463C15.9591 6.04463 14.6328 4.6989 14.6328 3.0648C14.6328 1.43069 15.9591 0.0849609 17.5696 0.0849609C19.1801 0.0849609 20.5064 1.43069 20.5064 3.0648C20.5064 4.6989 19.1801 6.04463 17.5696 6.04463ZM17.5696 0.821909C16.338 0.821909 15.3275 1.84723 15.3275 3.09684C15.3275 4.34644 16.338 5.37176 17.5696 5.37176C18.8011 5.37176 19.8117 4.34644 19.8117 3.09684C19.8117 1.84723 18.8011 0.821909 17.5696 0.821909Z" fill="white"/>
<path d="M18.5477 4.15415C18.4846 4.28231 18.3582 4.41048 18.2004 4.47456C18.0425 4.57069 17.8846 4.60273 17.6635 4.63477V4.98722H17.3793V4.63477C17.0951 4.60273 16.8741 4.5066 16.6846 4.37844C16.4951 4.21823 16.432 4.02598 16.4004 3.76965H17.032C17.0635 3.99394 17.1583 4.12211 17.3477 4.15415V3.32108C17.1267 3.257 16.9688 3.22495 16.8425 3.16087C16.7162 3.09679 16.6214 3.03271 16.5267 2.90454C16.432 2.77638 16.4004 2.61617 16.4004 2.42392C16.4004 2.16759 16.4951 1.97535 16.6846 1.81514C16.8741 1.65493 17.0951 1.55881 17.3793 1.52677V1.17432H17.6635V1.52677C17.9477 1.55881 18.1688 1.62289 18.3267 1.7831C18.4846 1.94331 18.5793 2.13555 18.6109 2.39188H17.9477C17.9477 2.29576 17.9162 2.23168 17.853 2.16759C17.7898 2.10351 17.7267 2.07147 17.6635 2.03943V2.8725C17.8846 2.93658 18.0425 2.96862 18.1688 3.03271C18.2951 3.09679 18.3898 3.16087 18.4846 3.28904C18.5793 3.4172 18.6109 3.57741 18.6109 3.76965C18.674 3.89782 18.6109 4.02599 18.5477 4.15415ZM17.1583 2.61617C17.2214 2.68025 17.2846 2.7123 17.4109 2.77638V2.00739C17.3162 2.00739 17.2214 2.07147 17.1583 2.13555C17.0951 2.19964 17.0635 2.29576 17.0635 2.39188C17.0635 2.48801 17.0951 2.55209 17.1583 2.61617ZM17.9477 4.02599C18.0109 3.9619 18.0425 3.86578 18.0425 3.76965C18.0425 3.67353 18.0109 3.60945 17.9477 3.54537C17.8846 3.48128 17.7898 3.44924 17.6951 3.38516V4.15415C17.7898 4.12211 17.8846 4.09007 17.9477 4.02599Z" fill="white"/>
<path d="M27.2633 1.27039C25.4318 0.757727 22.3055 0.757727 20.3161 0.405273V5.66003C21.4529 5.82024 23.695 5.91636 24.6739 6.14065C32.5685 7.87088 37.621 15.1122 36.7684 23.3468C35.9789 31.0046 29.3159 37.0284 21.4845 37.0925C17.3477 37.1245 13.1794 37.1245 9.04266 37.0925C9.39002 37.8615 9.61107 38.6945 9.61107 39.5917C9.61107 40.617 9.35844 41.5783 8.88477 42.4434C13.1794 42.4434 17.4741 42.4434 21.7687 42.4113C31.8738 42.3472 41.3473 34.6894 42.2314 22.5778C42.9262 12.9654 36.4526 3.89777 27.2633 1.27039Z" fill="#E62278"/>
<path d="M3.57998 42.4116C5.02752 42.4116 6.20098 41.2209 6.20098 39.7522C6.20098 38.2834 5.02752 37.0928 3.57998 37.0928C2.13245 37.0928 0.958984 38.2834 0.958984 39.7522C0.958984 41.2209 2.13245 42.4116 3.57998 42.4116Z" fill="#211C50"/>
<path d="M3.58066 42.6997C2.00174 42.6997 0.707031 41.386 0.707031 39.7839C0.707031 38.1819 2.00174 36.8682 3.58066 36.8682C5.15957 36.8682 6.45428 38.1819 6.45428 39.7839C6.45428 41.386 5.15957 42.6997 3.58066 42.6997ZM3.58066 37.3488C2.28595 37.3488 1.21229 38.4382 1.21229 39.7519C1.21229 41.0656 2.28595 42.155 3.58066 42.155C4.87537 42.155 5.94903 41.0656 5.94903 39.7519C5.94903 38.4382 4.87537 37.3488 3.58066 37.3488Z" fill="white"/>
<path d="M5.0328 40.1685C5.0328 39.784 4.78017 39.5597 4.43281 39.4636C4.68544 39.3355 4.87491 39.1432 4.87491 38.8548C4.87491 38.3422 4.49596 38.182 4.02229 38.1179V37.7334H3.64335V38.1179H3.35915V37.7334H3.01179V38.1179H2.25391V38.5024H2.60127C2.63285 38.5024 2.696 38.5344 2.696 38.5665V40.521C2.696 40.6171 2.63285 40.6491 2.56969 40.6491H2.25391V41.0016H3.01179V41.4822H3.35915V41.0016H3.64335V41.4822H3.99071V41.0016C4.65386 41.0016 5.0328 40.6812 5.0328 40.1685ZM4.24334 38.951C4.24334 39.1752 4.08545 39.3675 3.64335 39.3675H3.29599V38.5665H3.67493C4.02229 38.5665 4.24334 38.6305 4.24334 38.951ZM3.76967 40.6491H3.32757V39.752H3.80124C4.18018 39.752 4.40123 39.9122 4.40123 40.2006C4.40123 40.4569 4.24334 40.6491 3.76967 40.6491Z" fill="white"/>
<path d="M6.23256 4.9873H0.958984V25.3655H6.23256V4.9873Z" fill="#211C50"/>
</svg>
