<svg width="155" height="24" viewBox="0 0 155 24" fill="none" xmlns="http://www.w3.org/2000/svg">
<path d="M0.992 19.0001V2.20012H8.624C10.448 2.20012 12.056 2.55212 13.448 3.25612C14.84 3.94412 15.928 4.91212 16.712 6.16012C17.496 7.40812 17.888 8.88812 17.888 10.6001C17.888 12.2961 17.496 13.7761 16.712 15.0401C15.928 16.2881 14.84 17.2641 13.448 17.9681C12.056 18.6561 10.448 19.0001 8.624 19.0001H0.992ZM4.88 15.8081H8.432C9.552 15.8081 10.52 15.6001 11.336 15.1841C12.168 14.7521 12.808 14.1441 13.256 13.3601C13.72 12.5761 13.952 11.6561 13.952 10.6001C13.952 9.52812 13.72 8.60812 13.256 7.84012C12.808 7.05612 12.168 6.45612 11.336 6.04012C10.52 5.60812 9.552 5.39212 8.432 5.39212H4.88V15.8081ZM20.5561 19.0001V6.08812H24.3001V19.0001H20.5561ZM22.4281 4.28812C21.7401 4.28812 21.1801 4.08812 20.7481 3.68812C20.3161 3.28812 20.1001 2.79212 20.1001 2.20012C20.1001 1.60812 20.3161 1.11212 20.7481 0.712121C21.1801 0.312121 21.7401 0.112121 22.4281 0.112121C23.1161 0.112121 23.6761 0.304121 24.1081 0.688122C24.5401 1.05612 24.7561 1.53612 24.7561 2.12812C24.7561 2.75212 24.5401 3.27212 24.1081 3.68812C23.6921 4.08812 23.1321 4.28812 22.4281 4.28812ZM33.8469 23.8481C32.6309 23.8481 31.4549 23.6961 30.3189 23.3921C29.1989 23.1041 28.2629 22.6641 27.5109 22.0721L28.9989 19.3841C29.5429 19.8321 30.2309 20.1841 31.0629 20.4401C31.9109 20.7121 32.7429 20.8481 33.5589 20.8481C34.8869 20.8481 35.8469 20.5521 36.4389 19.9601C37.0469 19.3681 37.3509 18.4881 37.3509 17.3201V15.3761L37.5909 12.1361L37.5429 8.87212V6.08812H41.0949V16.8401C41.0949 19.2401 40.4709 21.0081 39.2229 22.1441C37.9749 23.2801 36.1829 23.8481 33.8469 23.8481ZM33.2709 18.3761C32.0709 18.3761 30.9829 18.1201 30.0069 17.6081C29.0469 17.0801 28.2709 16.3521 27.6789 15.4241C27.1029 14.4801 26.8149 13.3841 26.8149 12.1361C26.8149 10.8721 27.1029 9.77612 27.6789 8.84812C28.2709 7.90412 29.0469 7.17612 30.0069 6.66412C30.9829 6.15212 32.0709 5.89612 33.2709 5.89612C34.3589 5.89612 35.3189 6.12012 36.1509 6.56812C36.9829 7.00012 37.6309 7.68012 38.0949 8.60812C38.5589 9.52012 38.7909 10.6961 38.7909 12.1361C38.7909 13.5601 38.5589 14.7361 38.0949 15.6641C37.6309 16.5761 36.9829 17.2561 36.1509 17.7041C35.3189 18.1521 34.3589 18.3761 33.2709 18.3761ZM34.0149 15.3041C34.6709 15.3041 35.2549 15.1761 35.7669 14.9201C36.2789 14.6481 36.6789 14.2721 36.9669 13.7921C37.2549 13.3121 37.3989 12.7601 37.3989 12.1361C37.3989 11.4961 37.2549 10.9441 36.9669 10.4801C36.6789 10.0001 36.2789 9.63212 35.7669 9.37612C35.2549 9.10412 34.6709 8.96812 34.0149 8.96812C33.3589 8.96812 32.7749 9.10412 32.2629 9.37612C31.7509 9.63212 31.3429 10.0001 31.0389 10.4801C30.7509 10.9441 30.6069 11.4961 30.6069 12.1361C30.6069 12.7601 30.7509 13.3121 31.0389 13.7921C31.3429 14.2721 31.7509 14.6481 32.2629 14.9201C32.7749 15.1761 33.3589 15.3041 34.0149 15.3041ZM44.5796 19.0001V6.08812H48.3236V19.0001H44.5796ZM46.4516 4.28812C45.7636 4.28812 45.2036 4.08812 44.7716 3.68812C44.3396 3.28812 44.1236 2.79212 44.1236 2.20012C44.1236 1.60812 44.3396 1.11212 44.7716 0.712121C45.2036 0.312121 45.7636 0.112121 46.4516 0.112121C47.1396 0.112121 47.6996 0.304121 48.1316 0.688122C48.5636 1.05612 48.7796 1.53612 48.7796 2.12812C48.7796 2.75212 48.5636 3.27212 48.1316 3.68812C47.7156 4.08812 47.1556 4.28812 46.4516 4.28812Z" fill="#E72078"/>
<path d="M53.5983 19.0001V3.64012L55.2783 5.32012H50.2383V2.20012H57.4863V19.0001H53.5983ZM66.3088 1.91212C67.8608 1.91212 69.1968 2.23212 70.3168 2.87212C71.4368 3.51212 72.3008 4.44812 72.9088 5.68012C73.5168 6.89612 73.8208 8.41612 73.8208 10.2401C73.8208 12.1761 73.4528 13.8161 72.7168 15.1601C71.9968 16.5041 70.9968 17.5281 69.7168 18.2321C68.4368 18.9361 66.9488 19.2881 65.2528 19.2881C64.3728 19.2881 63.5248 19.1921 62.7088 19.0001C61.8928 18.8081 61.1888 18.5201 60.5968 18.1361L62.0368 15.2801C62.5008 15.6001 62.9968 15.8241 63.5248 15.9521C64.0528 16.0641 64.6048 16.1201 65.1808 16.1201C66.6208 16.1201 67.7648 15.6801 68.6128 14.8001C69.4768 13.9201 69.9088 12.6161 69.9088 10.8881C69.9088 10.6001 69.9008 10.2801 69.8848 9.92812C69.8688 9.57612 69.8288 9.22412 69.7648 8.87212L70.8208 9.88012C70.5488 10.5041 70.1648 11.0321 69.6688 11.4641C69.1728 11.8801 68.5968 12.2001 67.9408 12.4241C67.2848 12.6321 66.5488 12.7361 65.7328 12.7361C64.6608 12.7361 63.6848 12.5201 62.8048 12.0881C61.9408 11.6561 61.2448 11.0481 60.7168 10.2641C60.2048 9.48012 59.9488 8.56012 59.9488 7.50412C59.9488 6.35212 60.2288 5.36012 60.7888 4.52812C61.3648 3.69612 62.1328 3.05612 63.0928 2.60812C64.0688 2.14412 65.1408 1.91212 66.3088 1.91212ZM66.5488 4.81612C65.9888 4.81612 65.5008 4.92012 65.0848 5.12812C64.6688 5.32012 64.3408 5.60812 64.1008 5.99212C63.8608 6.36012 63.7408 6.80012 63.7408 7.31212C63.7408 8.08012 63.9968 8.69612 64.5088 9.16012C65.0368 9.60812 65.7328 9.83212 66.5968 9.83212C67.1568 9.83212 67.6528 9.72812 68.0848 9.52012C68.5328 9.29612 68.8768 8.99212 69.1168 8.60812C69.3568 8.22412 69.4768 7.79212 69.4768 7.31212C69.4768 6.83212 69.3568 6.40812 69.1168 6.04012C68.8928 5.65612 68.5648 5.36012 68.1328 5.15212C67.7008 4.92812 67.1728 4.81612 66.5488 4.81612ZM81.398 19.2881C80.23 19.2881 79.07 19.1361 77.918 18.8321C76.782 18.5121 75.806 18.0641 74.99 17.4881L76.526 14.5121C77.166 14.9761 77.902 15.3441 78.734 15.6161C79.582 15.8881 80.438 16.0241 81.302 16.0241C82.278 16.0241 83.046 15.8321 83.606 15.4481C84.166 15.0641 84.446 14.5281 84.446 13.8401C84.446 13.4081 84.334 13.0241 84.11 12.6881C83.886 12.3521 83.486 12.0961 82.91 11.9201C82.35 11.7441 81.558 11.6561 80.534 11.6561H76.238L77.102 2.20012H87.35V5.32012H78.494L80.51 3.54412L79.91 10.2881L77.894 8.51212H81.446C83.11 8.51212 84.446 8.74412 85.454 9.20812C86.478 9.65612 87.222 10.2721 87.686 11.0561C88.15 11.8401 88.382 12.7281 88.382 13.7201C88.382 14.7121 88.134 15.6321 87.638 16.4801C87.142 17.3121 86.374 17.9921 85.334 18.5201C84.31 19.0321 82.998 19.2881 81.398 19.2881ZM97.9888 19.0001V2.20012H100.389V19.0001H97.9888ZM111.874 6.16012C112.914 6.16012 113.826 6.36012 114.61 6.76012C115.41 7.16012 116.034 7.76812 116.482 8.58412C116.93 9.40012 117.154 10.4321 117.154 11.6801V19.0001H114.85V11.9441C114.85 10.7121 114.546 9.78412 113.938 9.16012C113.346 8.53612 112.506 8.22412 111.418 8.22412C110.602 8.22412 109.89 8.38412 109.282 8.70412C108.674 9.02412 108.202 9.49612 107.866 10.1201C107.546 10.7441 107.386 11.5201 107.386 12.4481V19.0001H105.082V6.28012H107.29V9.71212L106.93 8.80012C107.346 7.96812 107.986 7.32012 108.85 6.85612C109.714 6.39212 110.722 6.16012 111.874 6.16012ZM126.674 19.1441C125.442 19.1441 124.338 18.8721 123.362 18.3281C122.402 17.7841 121.642 17.0241 121.082 16.0481C120.522 15.0721 120.242 13.9361 120.242 12.6401C120.242 11.3441 120.522 10.2161 121.082 9.25612C121.642 8.28012 122.402 7.52012 123.362 6.97612C124.338 6.43212 125.442 6.16012 126.674 6.16012C127.746 6.16012 128.714 6.40012 129.578 6.88012C130.442 7.36012 131.13 8.08012 131.642 9.04012C132.17 10.0001 132.434 11.2001 132.434 12.6401C132.434 14.0801 132.178 15.2801 131.666 16.2401C131.17 17.2001 130.49 17.9281 129.626 18.4241C128.762 18.9041 127.778 19.1441 126.674 19.1441ZM126.866 17.1281C127.666 17.1281 128.386 16.9441 129.026 16.5761C129.682 16.2081 130.194 15.6881 130.562 15.0161C130.946 14.3281 131.138 13.5361 131.138 12.6401C131.138 11.7281 130.946 10.9441 130.562 10.2881C130.194 9.61612 129.682 9.09612 129.026 8.72812C128.386 8.36012 127.666 8.17612 126.866 8.17612C126.05 8.17612 125.322 8.36012 124.682 8.72812C124.042 9.09612 123.53 9.61612 123.146 10.2881C122.762 10.9441 122.57 11.7281 122.57 12.6401C122.57 13.5361 122.762 14.3281 123.146 15.0161C123.53 15.6881 124.042 16.2081 124.682 16.5761C125.322 16.9441 126.05 17.1281 126.866 17.1281ZM131.21 19.0001V15.5681L131.354 12.6161L131.114 9.66412V1.19212H133.418V19.0001H131.21ZM137.778 19.0001V6.28012H140.082V19.0001H137.778ZM138.93 3.83212C138.482 3.83212 138.106 3.68812 137.802 3.40012C137.514 3.11212 137.37 2.76012 137.37 2.34412C137.37 1.91212 137.514 1.55212 137.802 1.26412C138.106 0.976121 138.482 0.832121 138.93 0.832121C139.378 0.832121 139.746 0.976121 140.034 1.26412C140.338 1.53612 140.49 1.88012 140.49 2.29612C140.49 2.72812 140.346 3.09612 140.058 3.40012C139.77 3.68812 139.394 3.83212 138.93 3.83212ZM152.377 19.0001V16.3121L152.257 15.8081V11.2241C152.257 10.2481 151.969 9.49612 151.393 8.96812C150.833 8.42412 149.985 8.15212 148.849 8.15212C148.097 8.15212 147.361 8.28012 146.641 8.53612C145.921 8.77612 145.313 9.10412 144.817 9.52012L143.857 7.79212C144.513 7.26412 145.297 6.86412 146.209 6.59212C147.137 6.30412 148.105 6.16012 149.113 6.16012C150.857 6.16012 152.201 6.58412 153.145 7.43212C154.089 8.28012 154.561 9.57612 154.561 11.3201V19.0001H152.377ZM148.201 19.1441C147.257 19.1441 146.425 18.9841 145.705 18.6641C145.001 18.3441 144.457 17.9041 144.073 17.3441C143.689 16.7681 143.497 16.1201 143.497 15.4001C143.497 14.7121 143.657 14.0881 143.977 13.5281C144.313 12.9681 144.849 12.5201 145.585 12.1841C146.337 11.8481 147.345 11.6801 148.609 11.6801H152.641V13.3361H148.705C147.553 13.3361 146.777 13.5281 146.377 13.9121C145.977 14.2961 145.777 14.7601 145.777 15.3041C145.777 15.9281 146.025 16.4321 146.521 16.8161C147.017 17.1841 147.705 17.3681 148.585 17.3681C149.449 17.3681 150.201 17.1761 150.841 16.7921C151.497 16.4081 151.969 15.8481 152.257 15.1121L152.713 16.6961C152.409 17.4481 151.873 18.0481 151.105 18.4961C150.337 18.9281 149.369 19.1441 148.201 19.1441Z" fill="white"/>
</svg>
