<svg width="194" height="61" viewBox="0 0 194 61" fill="none" xmlns="http://www.w3.org/2000/svg">
<path d="M3.83456 17.2873C4.68718 17.2873 5.35032 17.4795 6.07662 17.832L6.26609 14.724H16.0869V9.46924H0.960938V18.0242C1.81355 17.5436 2.79248 17.2873 3.83456 17.2873Z" fill="#211C50"/>
<path d="M21.1395 20.4918C19.4974 20.4597 17.8553 20.4918 16.2133 20.4918C14.6343 20.4918 13.0554 20.4918 11.5081 20.4918V25.8427C14.7291 25.8427 17.8237 25.7786 20.8868 25.8747C23.4447 25.9388 25.3394 28.0855 25.2762 30.5848C25.1815 33.1481 23.0342 35.0385 20.4447 34.9744C18.0764 34.9103 15.708 34.9744 13.3712 34.9744C11.0344 34.9744 8.66604 34.9744 6.26609 34.9744V28.47C5.53979 28.8225 4.71875 29.0147 3.83456 29.0147C2.79248 29.0147 1.81355 28.7264 0.960938 28.2458C0.960938 32.2509 0.960938 36.224 0.960938 40.1971C1.24514 40.2612 1.40303 40.3253 1.52935 40.3253C8.16079 40.3253 14.7607 40.3894 21.3921 40.2933C26.1288 40.2292 30.8024 35.9357 30.613 29.8478C30.4866 24.9776 26.1604 20.652 21.1395 20.4918Z" fill="#211C50"/>
<path d="M9.92851 46.0928H4.78125V51.4437H9.92851V46.0928Z" fill="#E62278"/>
<path d="M17.5699 14.6923C19 14.6923 20.1593 13.5159 20.1593 12.0649C20.1593 10.6138 19 9.4375 17.5699 9.4375C16.1398 9.4375 14.9805 10.6138 14.9805 12.0649C14.9805 13.5159 16.1398 14.6923 17.5699 14.6923Z" fill="#E62278"/>
<path d="M17.5696 15.0446C15.9591 15.0446 14.6328 13.6989 14.6328 12.0648C14.6328 10.4307 15.9591 9.08496 17.5696 9.08496C19.1801 9.08496 20.5064 10.4307 20.5064 12.0648C20.5064 13.6989 19.1801 15.0446 17.5696 15.0446ZM17.5696 9.82191C16.338 9.82191 15.3275 10.8472 15.3275 12.0968C15.3275 13.3464 16.338 14.3718 17.5696 14.3718C18.8011 14.3718 19.8117 13.3464 19.8117 12.0968C19.8117 10.8472 18.8011 9.82191 17.5696 9.82191Z" fill="white"/>
<path d="M18.5497 13.1541C18.4865 13.2823 18.3602 13.4105 18.2023 13.4746C18.0444 13.5707 17.8865 13.6027 17.6655 13.6348V13.9872H17.3813V13.6348C17.0971 13.6027 16.876 13.5066 16.6866 13.3784C16.4971 13.2182 16.4339 13.026 16.4023 12.7697H17.0339C17.0655 12.9939 17.1602 13.1221 17.3497 13.1541V12.3211C17.1286 12.257 16.9708 12.225 16.8444 12.1609C16.7181 12.0968 16.6234 12.0327 16.5287 11.9045C16.4339 11.7764 16.4023 11.6162 16.4023 11.4239C16.4023 11.1676 16.4971 10.9753 16.6866 10.8151C16.876 10.6549 17.0971 10.5588 17.3813 10.5268V10.1743H17.6655V10.5268C17.9497 10.5588 18.1707 10.6229 18.3286 10.7831C18.4865 10.9433 18.5812 11.1356 18.6128 11.3919H17.9497C17.9497 11.2958 17.9181 11.2317 17.8549 11.1676C17.7918 11.1035 17.7286 11.0715 17.6655 11.0394V11.8725C17.8865 11.9366 18.0444 11.9686 18.1707 12.0327C18.297 12.0968 18.3918 12.1609 18.4865 12.289C18.5812 12.4172 18.6128 12.5774 18.6128 12.7697C18.676 12.8978 18.6128 13.026 18.5497 13.1541ZM17.1602 11.6162C17.2234 11.6803 17.2865 11.7123 17.4129 11.7764V11.0074C17.3181 11.0074 17.2234 11.0715 17.1602 11.1356C17.0971 11.1996 17.0655 11.2958 17.0655 11.3919C17.0655 11.488 17.0971 11.5521 17.1602 11.6162ZM17.9497 13.026C18.0128 12.9619 18.0444 12.8658 18.0444 12.7697C18.0444 12.6735 18.0128 12.6094 17.9497 12.5454C17.8865 12.4813 17.7918 12.4492 17.6971 12.3852V13.1541C17.7918 13.1221 17.8865 13.0901 17.9497 13.026Z" fill="white"/>
<path d="M27.2653 10.2704C25.4337 9.75773 22.3075 9.75773 20.3181 9.40527V14.66C21.4549 14.8202 23.6969 14.9164 24.6759 15.1407C32.5704 16.8709 37.623 24.1122 36.7704 32.3468C35.9809 40.0046 29.3179 46.0284 21.4865 46.0925C17.3497 46.1245 13.1814 46.1245 9.04461 46.0925C9.39197 46.8615 9.61302 47.6945 9.61302 48.5917C9.61302 49.617 9.36039 50.5783 8.88672 51.4434C13.1814 51.4434 17.476 51.4434 21.7707 51.4113C31.8757 51.3472 41.3492 43.6894 42.2334 31.5778C42.9281 21.9654 36.4546 12.8978 27.2653 10.2704Z" fill="#E62278"/>
<path d="M3.58194 51.4116C5.02947 51.4116 6.20293 50.2209 6.20293 48.7522C6.20293 47.2834 5.02947 46.0928 3.58194 46.0928C2.1344 46.0928 0.960938 47.2834 0.960938 48.7522C0.960938 50.2209 2.1344 51.4116 3.58194 51.4116Z" fill="#211C50"/>
<path d="M3.58066 51.6997C2.00174 51.6997 0.707031 50.386 0.707031 48.7839C0.707031 47.1819 2.00174 45.8682 3.58066 45.8682C5.15957 45.8682 6.45428 47.1819 6.45428 48.7839C6.45428 50.386 5.15957 51.6997 3.58066 51.6997ZM3.58066 46.3488C2.28595 46.3488 1.21229 47.4382 1.21229 48.7519C1.21229 50.0656 2.28595 51.155 3.58066 51.155C4.87537 51.155 5.94903 50.0656 5.94903 48.7519C5.94903 47.4382 4.87537 46.3488 3.58066 46.3488Z" fill="white"/>
<path d="M5.0328 49.1685C5.0328 48.784 4.78017 48.5597 4.43281 48.4636C4.68544 48.3355 4.87491 48.1432 4.87491 47.8548C4.87491 47.3422 4.49596 47.182 4.02229 47.1179V46.7334H3.64335V47.1179H3.35915V46.7334H3.01179V47.1179H2.25391V47.5024H2.60127C2.63285 47.5024 2.696 47.5344 2.696 47.5665V49.521C2.696 49.6171 2.63285 49.6491 2.56969 49.6491H2.25391V50.0016H3.01179V50.4822H3.35915V50.0016H3.64335V50.4822H3.99071V50.0016C4.65386 50.0016 5.0328 49.6812 5.0328 49.1685ZM4.24334 47.951C4.24334 48.1752 4.08545 48.3675 3.64335 48.3675H3.29599V47.5665H3.67493C4.02229 47.5665 4.24334 47.6305 4.24334 47.951ZM3.76967 49.6491H3.32757V48.752H3.80124C4.18018 48.752 4.40123 48.9122 4.40123 49.2006C4.40123 49.4569 4.24334 49.6491 3.76967 49.6491Z" fill="white"/>
<path d="M6.23451 13.9873H0.960938V34.3655H6.23451V13.9873Z" fill="#211C50"/>
<path d="M55.3359 38.5477V14.709H60.2622C62.6305 14.709 64.4936 14.9333 65.8515 15.4139C67.3357 15.8625 68.662 16.6635 69.862 17.7849C72.2935 20.0278 73.4935 22.9756 73.4935 26.6283C73.4935 30.281 72.2303 33.2609 69.7041 35.5358C68.4409 36.6572 67.1146 37.4583 65.7252 37.9068C64.4305 38.3554 62.5989 38.5797 60.199 38.5797H55.3359V38.5477ZM58.9043 35.1833H60.5148C62.0937 35.1833 63.42 35.0231 64.4936 34.6707C65.5357 34.3182 66.5147 33.7415 67.3673 32.9725C69.1041 31.3704 69.9883 29.2557 69.9883 26.6604C69.9883 24.033 69.1357 21.9183 67.3988 20.2842C65.8515 18.8423 63.5463 18.1054 60.5464 18.1054H58.9359V35.1833H58.9043Z" fill="#E62278"/>
<path d="M76.8086 17.2722C76.8086 16.6634 77.0296 16.1507 77.4717 15.7022C77.9138 15.2536 78.4191 15.0293 79.0507 15.0293C79.6822 15.0293 80.1875 15.2536 80.6296 15.7022C81.0717 16.1187 81.2927 16.6634 81.2927 17.3042C81.2927 17.9451 81.0717 18.4577 80.6296 18.9063C80.1559 19.4189 79.5559 19.6112 78.8296 19.5471C78.4191 19.5151 78.0086 19.3549 77.6928 19.0665C77.0928 18.5859 76.8086 17.9771 76.8086 17.2722ZM80.7559 23.5202V38.5476H77.3138V23.5202H80.7559Z" fill="#E62278"/>
<path d="M99.418 38.1951C99.418 38.9 99.3864 39.5408 99.3548 40.0855C99.3233 40.6302 99.2601 41.1109 99.1654 41.5274C98.9127 42.6488 98.4391 43.6421 97.7443 44.4432C96.4181 46.0132 94.5549 46.7822 92.2181 46.7822C90.2287 46.7822 88.6182 46.2375 87.3235 45.1481C85.9972 44.0266 85.2393 42.4886 85.0499 40.5341H88.4919C88.6182 41.2711 88.8393 41.8478 89.155 42.2644C89.8498 43.1936 90.8918 43.6742 92.2497 43.6742C94.7444 43.6742 96.0075 42.1041 96.0075 38.9961V36.8814C94.6497 38.2912 93.0707 38.9961 91.3024 38.9961C89.2814 38.9961 87.6393 38.2592 86.3446 36.7853C85.0499 35.2794 84.3867 33.3889 84.3867 31.146C84.3867 28.9672 84.9867 27.0768 86.1867 25.5709C87.4814 23.9368 89.1866 23.1357 91.3339 23.1357C93.1971 23.1357 94.7444 23.8407 95.976 25.2505V23.5523H99.3864V38.1951H99.418ZM96.1338 31.0499C96.1338 29.576 95.7549 28.4225 94.9654 27.5574C94.176 26.6603 93.1971 26.2117 91.9655 26.2117C90.6708 26.2117 89.6287 26.6923 88.9024 27.6856C88.2077 28.5507 87.8919 29.7042 87.8919 31.082C87.8919 32.4597 88.2393 33.5812 88.9024 34.4463C89.6287 35.4075 90.6708 35.8881 91.9655 35.8881C93.2602 35.8881 94.3023 35.4075 95.0602 34.4463C95.7865 33.5491 96.1338 32.4277 96.1338 31.0499Z" fill="#E62278"/>
<path d="M103.238 17.2722C103.238 16.6634 103.459 16.1507 103.901 15.7022C104.344 15.2536 104.849 15.0293 105.48 15.0293C106.112 15.0293 106.617 15.2536 107.059 15.7022C107.501 16.1187 107.722 16.6634 107.722 17.3042C107.722 17.9451 107.501 18.4577 107.059 18.9063C106.586 19.4189 105.986 19.6112 105.259 19.5471C104.849 19.5151 104.438 19.3549 104.122 19.0665C103.491 18.5859 103.238 17.9771 103.238 17.2722ZM107.154 23.5202V38.5476H103.744V23.5202H107.154Z" fill="#E62278"/>
<path d="M112.745 26.8206H110.566V23.4883H116.598V38.5797H112.745V26.8206Z" fill="#211C50"/>
<path d="M122.599 38.5795L126.83 33.6452H126.767C126.388 33.8695 126.104 33.9977 125.851 34.0617C125.63 34.0938 125.409 34.1258 125.22 34.1258C124.494 34.1258 123.83 33.9977 123.23 33.7093C122.63 33.4209 122.094 33.0364 121.651 32.5558C121.209 32.0752 120.862 31.4984 120.609 30.8576C120.357 30.2168 120.23 29.5119 120.23 28.7429C120.23 27.9419 120.388 27.2049 120.673 26.5C120.957 25.8271 121.367 25.2184 121.936 24.7057C122.473 24.193 123.136 23.7765 123.925 23.4881C124.715 23.1998 125.567 23.0396 126.546 23.0396C127.525 23.0396 128.409 23.1998 129.199 23.4881C129.988 23.7765 130.62 24.193 131.188 24.6737C131.725 25.1863 132.135 25.7631 132.451 26.4359C132.735 27.1088 132.893 27.8137 132.893 28.5827C132.893 29.4478 132.704 30.345 132.325 31.3382C131.946 32.3315 131.378 33.2927 130.588 34.254L127.146 38.4834H122.599V38.5795ZM129.009 28.7108C129.009 28.3584 128.946 28.038 128.82 27.7496C128.693 27.4612 128.504 27.1729 128.283 26.9486C128.062 26.7243 127.809 26.532 127.493 26.4039C127.209 26.2757 126.893 26.2116 126.546 26.2116C126.199 26.2116 125.883 26.2757 125.599 26.4039C125.315 26.532 125.03 26.7243 124.809 26.9486C124.588 27.1729 124.399 27.4292 124.272 27.7496C124.146 28.038 124.083 28.3584 124.083 28.7108C124.083 29.0633 124.146 29.3837 124.272 29.6721C124.399 29.9605 124.588 30.2488 124.809 30.4731C125.03 30.6974 125.283 30.8897 125.599 31.0178C125.883 31.146 126.199 31.2101 126.546 31.2101C126.893 31.2101 127.209 31.146 127.493 31.0178C127.778 30.8897 128.062 30.6974 128.283 30.4731C128.504 30.2488 128.693 29.9925 128.82 29.6721C128.915 29.3517 129.009 29.0313 129.009 28.7108Z" fill="#211C50"/>
<path d="M144.261 26.8208H139.113L138.861 28.4869C139.082 28.4549 139.303 28.4228 139.524 28.4228C139.713 28.3908 139.934 28.3908 140.124 28.3908C140.882 28.3908 141.576 28.5189 142.208 28.7753C142.84 29.0316 143.408 29.4161 143.85 29.8647C144.324 30.3453 144.671 30.89 144.924 31.5308C145.176 32.1716 145.303 32.9086 145.303 33.6776C145.303 34.4786 145.145 35.2156 144.861 35.8884C144.576 36.5292 144.134 37.106 143.598 37.5546C143.061 38.0031 142.398 38.3556 141.64 38.6119C140.882 38.8683 139.998 38.9964 139.05 38.9964C138.166 38.9964 137.313 38.9003 136.492 38.676C135.671 38.4517 134.913 38.1313 134.219 37.6507L134.787 33.9659C135.45 34.5427 136.113 34.9913 136.808 35.2796C137.503 35.568 138.134 35.7282 138.766 35.7282C139.745 35.7282 140.471 35.4078 140.945 34.7349C141.198 34.3825 141.324 33.9659 141.324 33.5494C141.355 32.7804 141.04 32.1396 140.408 31.691C139.777 31.2424 138.987 30.9861 137.977 30.9861C137.534 30.9861 137.061 31.0502 136.587 31.1463C136.113 31.2424 135.64 31.4026 135.198 31.6269L136.429 23.5205H144.197V26.8208H144.261Z" fill="#211C50"/>
<path d="M145.334 43.2256H130.523V46.686H145.334V43.2256Z" fill="#E62278"/>
</svg>
