<svg width="194" height="61" viewBox="0 0 194 61" fill="none" xmlns="http://www.w3.org/2000/svg">
<path d="M21.8326 17.2873C22.6852 17.2873 23.3484 17.4795 24.0747 17.832L24.2641 14.724H34.085V9.46924H18.959V18.0242C19.8116 17.5436 20.7905 17.2873 21.8326 17.2873Z" fill="#211C50"/>
<path d="M39.1375 20.4918C37.4954 20.4597 35.8534 20.4918 34.2113 20.4918C32.6324 20.4918 31.0535 20.4918 29.5061 20.4918V25.8427C32.7271 25.8427 35.8218 25.7786 38.8849 25.8747C41.4427 25.9388 43.3374 28.0855 43.2743 30.5848C43.1795 33.1481 41.0322 35.0385 38.4428 34.9744C36.0744 34.9103 33.706 34.9744 31.3693 34.9744C29.0325 34.9744 26.6641 34.9744 24.2641 34.9744V28.47C23.5378 28.8225 22.7168 29.0147 21.8326 29.0147C20.7905 29.0147 19.8116 28.7264 18.959 28.2458C18.959 32.2509 18.959 36.224 18.959 40.1971C19.2432 40.2612 19.4011 40.3253 19.5274 40.3253C26.1588 40.3253 32.7587 40.3894 39.3901 40.2933C44.1269 40.2292 48.8005 35.9357 48.611 29.8478C48.4847 24.9776 44.1585 20.652 39.1375 20.4918Z" fill="#211C50"/>
<path d="M27.9285 46.0928H22.7812V51.4437H27.9285V46.0928Z" fill="#E62278"/>
<path d="M35.5699 14.6923C37 14.6923 38.1593 13.5159 38.1593 12.0649C38.1593 10.6138 37 9.4375 35.5699 9.4375C34.1398 9.4375 32.9805 10.6138 32.9805 12.0649C32.9805 13.5159 34.1398 14.6923 35.5699 14.6923Z" fill="#E62278"/>
<path d="M35.5696 15.0446C33.9591 15.0446 32.6328 13.6989 32.6328 12.0648C32.6328 10.4307 33.9591 9.08496 35.5696 9.08496C37.1801 9.08496 38.5064 10.4307 38.5064 12.0648C38.5064 13.6989 37.1801 15.0446 35.5696 15.0446ZM35.5696 9.82191C34.338 9.82191 33.3275 10.8472 33.3275 12.0968C33.3275 13.3464 34.338 14.3718 35.5696 14.3718C36.8011 14.3718 37.8117 13.3464 37.8117 12.0968C37.8117 10.8472 36.8011 9.82191 35.5696 9.82191Z" fill="white"/>
<path d="M36.5477 13.1541C36.4846 13.2823 36.3582 13.4105 36.2004 13.4746C36.0425 13.5707 35.8846 13.6027 35.6635 13.6348V13.9872H35.3793V13.6348C35.0951 13.6027 34.8741 13.5066 34.6846 13.3784C34.4951 13.2182 34.432 13.026 34.4004 12.7697H35.032C35.0635 12.9939 35.1583 13.1221 35.3477 13.1541V12.3211C35.1267 12.257 34.9688 12.225 34.8425 12.1609C34.7162 12.0968 34.6214 12.0327 34.5267 11.9045C34.432 11.7764 34.4004 11.6162 34.4004 11.4239C34.4004 11.1676 34.4951 10.9753 34.6846 10.8151C34.8741 10.6549 35.0951 10.5588 35.3793 10.5268V10.1743H35.6635V10.5268C35.9477 10.5588 36.1688 10.6229 36.3267 10.7831C36.4846 10.9433 36.5793 11.1356 36.6109 11.3919H35.9477C35.9477 11.2958 35.9162 11.2317 35.853 11.1676C35.7898 11.1035 35.7267 11.0715 35.6635 11.0394V11.8725C35.8846 11.9366 36.0425 11.9686 36.1688 12.0327C36.2951 12.0968 36.3898 12.1609 36.4846 12.289C36.5793 12.4172 36.6109 12.5774 36.6109 12.7697C36.674 12.8978 36.6109 13.026 36.5477 13.1541ZM35.1583 11.6162C35.2214 11.6803 35.2846 11.7123 35.4109 11.7764V11.0074C35.3162 11.0074 35.2214 11.0715 35.1583 11.1356C35.0951 11.1996 35.0635 11.2958 35.0635 11.3919C35.0635 11.488 35.0951 11.5521 35.1583 11.6162ZM35.9477 13.026C36.0109 12.9619 36.0425 12.8658 36.0425 12.7697C36.0425 12.6735 36.0109 12.6094 35.9477 12.5454C35.8846 12.4813 35.7898 12.4492 35.6951 12.3852V13.1541C35.7898 13.1221 35.8846 13.0901 35.9477 13.026Z" fill="white"/>
<path d="M45.2633 10.2704C43.4318 9.75773 40.3055 9.75773 38.3161 9.40527V14.66C39.4529 14.8202 41.695 14.9164 42.6739 15.1407C50.5685 16.8709 55.621 24.1122 54.7684 32.3468C53.9789 40.0046 47.3159 46.0284 39.4845 46.0925C35.3477 46.1245 31.1794 46.1245 27.0427 46.0925C27.39 46.8615 27.6111 47.6945 27.6111 48.5917C27.6111 49.617 27.3584 50.5783 26.8848 51.4434C31.1794 51.4434 35.4741 51.4434 39.7687 51.4113C49.8738 51.3472 59.3473 43.6894 60.2314 31.5778C60.9262 21.9654 54.4526 12.8978 45.2633 10.2704Z" fill="#E62278"/>
<path d="M21.58 51.4116C23.0275 51.4116 24.201 50.2209 24.201 48.7522C24.201 47.2834 23.0275 46.0928 21.58 46.0928C20.1324 46.0928 18.959 47.2834 18.959 48.7522C18.959 50.2209 20.1324 51.4116 21.58 51.4116Z" fill="#211C50"/>
<path d="M21.5807 51.6997C20.0017 51.6997 18.707 50.386 18.707 48.7839C18.707 47.1819 20.0017 45.8682 21.5807 45.8682C23.1596 45.8682 24.4543 47.1819 24.4543 48.7839C24.4543 50.386 23.1596 51.6997 21.5807 51.6997ZM21.5807 46.3488C20.2859 46.3488 19.2123 47.4382 19.2123 48.7519C19.2123 50.0656 20.2859 51.155 21.5807 51.155C22.8754 51.155 23.949 50.0656 23.949 48.7519C23.949 47.4382 22.8754 46.3488 21.5807 46.3488Z" fill="white"/>
<path d="M23.0328 49.1685C23.0328 48.784 22.7802 48.5597 22.4328 48.4636C22.6854 48.3355 22.8749 48.1432 22.8749 47.8548C22.8749 47.3422 22.496 47.182 22.0223 47.1179V46.7334H21.6434V47.1179H21.3591V46.7334H21.0118V47.1179H20.2539V47.5024H20.6013C20.6328 47.5024 20.696 47.5344 20.696 47.5665V49.521C20.696 49.6171 20.6328 49.6491 20.5697 49.6491H20.2539V50.0016H21.0118V50.4822H21.3591V50.0016H21.6434V50.4822H21.9907V50.0016C22.6539 50.0016 23.0328 49.6812 23.0328 49.1685ZM22.2433 47.951C22.2433 48.1752 22.0854 48.3675 21.6434 48.3675H21.296V47.5665H21.6749C22.0223 47.5665 22.2433 47.6305 22.2433 47.951ZM21.7697 49.6491H21.3276V48.752H21.8012C22.1802 48.752 22.4012 48.9122 22.4012 49.2006C22.4012 49.4569 22.2433 49.6491 21.7697 49.6491Z" fill="white"/>
<path d="M24.2326 13.9873H18.959V34.3655H24.2326V13.9873Z" fill="#211C50"/>
<path d="M73.3359 38.5477V14.709H78.2622C80.6305 14.709 82.4936 14.9333 83.8515 15.4139C85.3357 15.8625 86.662 16.6635 87.862 17.7849C90.2935 20.0278 91.4935 22.9756 91.4935 26.6283C91.4935 30.281 90.2303 33.2609 87.7041 35.5358C86.4409 36.6572 85.1146 37.4583 83.7252 37.9068C82.4305 38.3554 80.5989 38.5797 78.199 38.5797H73.3359V38.5477ZM76.9043 35.1833H78.5148C80.0937 35.1833 81.42 35.0231 82.4936 34.6707C83.5357 34.3182 84.5147 33.7415 85.3673 32.9725C87.1041 31.3704 87.9883 29.2557 87.9883 26.6604C87.9883 24.033 87.1357 21.9183 85.3988 20.2842C83.8515 18.8423 81.5463 18.1054 78.5464 18.1054H76.9359V35.1833H76.9043Z" fill="#E62278"/>
<path d="M94.8086 17.2722C94.8086 16.6634 95.0296 16.1507 95.4717 15.7022C95.9138 15.2536 96.4191 15.0293 97.0507 15.0293C97.6822 15.0293 98.1875 15.2536 98.6296 15.7022C99.0717 16.1187 99.2927 16.6634 99.2927 17.3042C99.2927 17.9451 99.0717 18.4577 98.6296 18.9063C98.1559 19.4189 97.5559 19.6112 96.8296 19.5471C96.4191 19.5151 96.0086 19.3549 95.6928 19.0665C95.0928 18.5859 94.8086 17.9771 94.8086 17.2722ZM98.7559 23.5202V38.5476H95.3138V23.5202H98.7559Z" fill="#E62278"/>
<path d="M117.42 38.1951C117.42 38.9 117.388 39.5408 117.357 40.0855C117.325 40.6302 117.262 41.1109 117.167 41.5274C116.915 42.6488 116.441 43.6421 115.746 44.4432C114.42 46.0132 112.557 46.7822 110.22 46.7822C108.231 46.7822 106.62 46.2375 105.325 45.1481C103.999 44.0266 103.241 42.4886 103.052 40.5341H106.494C106.62 41.2711 106.841 41.8478 107.157 42.2644C107.852 43.1936 108.894 43.6742 110.252 43.6742C112.746 43.6742 114.009 42.1041 114.009 38.9961V36.8814C112.652 38.2912 111.073 38.9961 109.304 38.9961C107.283 38.9961 105.641 38.2592 104.347 36.7853C103.052 35.2794 102.389 33.3889 102.389 31.146C102.389 28.9672 102.989 27.0768 104.189 25.5709C105.483 23.9368 107.189 23.1357 109.336 23.1357C111.199 23.1357 112.746 23.8407 113.978 25.2505V23.5523H117.388V38.1951H117.42ZM114.136 31.0499C114.136 29.576 113.757 28.4225 112.967 27.5574C112.178 26.6603 111.199 26.2117 109.967 26.2117C108.673 26.2117 107.631 26.6923 106.904 27.6856C106.21 28.5507 105.894 29.7042 105.894 31.082C105.894 32.4597 106.241 33.5812 106.904 34.4463C107.631 35.4075 108.673 35.8881 109.967 35.8881C111.262 35.8881 112.304 35.4075 113.062 34.4463C113.788 33.5491 114.136 32.4277 114.136 31.0499Z" fill="#E62278"/>
<path d="M121.24 17.2722C121.24 16.6634 121.461 16.1507 121.903 15.7022C122.345 15.2536 122.851 15.0293 123.482 15.0293C124.114 15.0293 124.619 15.2536 125.061 15.7022C125.503 16.1187 125.724 16.6634 125.724 17.3042C125.724 17.9451 125.503 18.4577 125.061 18.9063C124.588 19.4189 123.988 19.6112 123.261 19.5471C122.851 19.5151 122.44 19.3549 122.124 19.0665C121.493 18.5859 121.24 17.9771 121.24 17.2722ZM125.156 23.5202V38.5476H121.745V23.5202H125.156Z" fill="#E62278"/>
<path d="M130.745 26.8206H128.566V23.4883H134.598V38.5797H130.745V26.8206Z" fill="#211C50"/>
<path d="M140.597 38.5795L144.828 33.6452H144.765C144.386 33.8695 144.102 33.9977 143.849 34.0617C143.628 34.0938 143.407 34.1258 143.218 34.1258C142.492 34.1258 141.828 33.9977 141.228 33.7093C140.628 33.4209 140.092 33.0364 139.65 32.5558C139.207 32.0752 138.86 31.4984 138.607 30.8576C138.355 30.2168 138.229 29.5119 138.229 28.7429C138.229 27.9419 138.386 27.2049 138.671 26.5C138.955 25.8271 139.365 25.2184 139.934 24.7057C140.471 24.193 141.134 23.7765 141.923 23.4881C142.713 23.1998 143.565 23.0396 144.544 23.0396C145.523 23.0396 146.407 23.1998 147.197 23.4881C147.986 23.7765 148.618 24.193 149.186 24.6737C149.723 25.1863 150.134 25.7631 150.449 26.4359C150.734 27.1088 150.891 27.8137 150.891 28.5827C150.891 29.4478 150.702 30.345 150.323 31.3382C149.944 32.3315 149.376 33.2927 148.586 34.254L145.144 38.4834H140.597V38.5795ZM147.007 28.7108C147.007 28.3584 146.944 28.038 146.818 27.7496C146.691 27.4612 146.502 27.1729 146.281 26.9486C146.06 26.7243 145.807 26.532 145.492 26.4039C145.207 26.2757 144.892 26.2116 144.544 26.2116C144.197 26.2116 143.881 26.2757 143.597 26.4039C143.313 26.532 143.028 26.7243 142.807 26.9486C142.586 27.1729 142.397 27.4292 142.271 27.7496C142.144 28.038 142.081 28.3584 142.081 28.7108C142.081 29.0633 142.144 29.3837 142.271 29.6721C142.397 29.9605 142.586 30.2488 142.807 30.4731C143.028 30.6974 143.281 30.8897 143.597 31.0178C143.881 31.146 144.197 31.2101 144.544 31.2101C144.892 31.2101 145.207 31.146 145.492 31.0178C145.776 30.8897 146.06 30.6974 146.281 30.4731C146.502 30.2488 146.691 29.9925 146.818 29.6721C146.913 29.3517 147.007 29.0313 147.007 28.7108Z" fill="#211C50"/>
<path d="M162.261 26.8208H157.113L156.861 28.4869C157.082 28.4549 157.303 28.4228 157.524 28.4228C157.713 28.3908 157.934 28.3908 158.124 28.3908C158.882 28.3908 159.576 28.5189 160.208 28.7753C160.84 29.0316 161.408 29.4161 161.85 29.8647C162.324 30.3453 162.671 30.89 162.924 31.5308C163.176 32.1716 163.303 32.9086 163.303 33.6776C163.303 34.4786 163.145 35.2156 162.861 35.8884C162.576 36.5292 162.134 37.106 161.598 37.5546C161.061 38.0031 160.398 38.3556 159.64 38.6119C158.882 38.8683 157.998 38.9964 157.05 38.9964C156.166 38.9964 155.313 38.9003 154.492 38.676C153.671 38.4517 152.913 38.1313 152.219 37.6507L152.787 33.9659C153.45 34.5427 154.113 34.9913 154.808 35.2796C155.503 35.568 156.134 35.7282 156.766 35.7282C157.745 35.7282 158.471 35.4078 158.945 34.7349C159.198 34.3825 159.324 33.9659 159.324 33.5494C159.355 32.7804 159.04 32.1396 158.408 31.691C157.777 31.2424 156.987 30.9861 155.977 30.9861C155.534 30.9861 155.061 31.0502 154.587 31.1463C154.113 31.2424 153.64 31.4026 153.198 31.6269L154.429 23.5205H162.197V26.8208H162.261Z" fill="#211C50"/>
<path d="M163.334 43.2256H148.523V46.686H163.334V43.2256Z" fill="#E62278"/>
</svg>
