<svg width="320" height="320" viewBox="0 0 320 320" fill="none" xmlns="http://www.w3.org/2000/svg">
<path d="M207.297 15H113.199L37.0725 70.3142L8 159.802L37.0725 249.298L113.199 304.603H207.297L283.423 249.298L312.504 159.802L283.423 70.3142L207.297 15Z" fill="white"/>
<path d="M203.417 26.957H117.09L47.2483 77.7048L20.5703 159.804L47.2483 241.912L117.09 292.65H203.417L273.259 241.912L299.937 159.804L273.259 77.7048L203.417 26.957Z" stroke="#1836B2" stroke-miterlimit="10"/>
<path d="M106.114 62.4375L214.526 62.9627L215.309 200.18C214.873 205.939 213.475 214.957 208.677 224.793C205.669 230.953 200.07 242.044 187.376 249.762C171.46 259.429 155.232 257.15 150.889 256.393C132.186 253.135 121.513 241.02 118.247 237.193C115.051 233.445 103.844 220.324 105.33 203.5C105.686 199.441 106.603 189.044 113.707 186.214C118.344 184.371 125.092 185.947 128.368 190.931C130.878 194.732 132.044 201.56 127.673 205.076C124.13 207.924 118.238 207.577 114.232 203.678C114.223 205.948 114.428 215.651 121.736 222.363C129.356 229.35 139.477 228.309 144.631 227.784C147.871 227.454 154.458 226.698 160.849 222.114C172.573 213.719 173.854 199.477 174.033 197.065C174.976 183.659 174.478 172.496 173.757 164.396C172.617 151.595 171.923 143.424 167.819 133.143C165.247 126.698 161.17 116.808 151.405 107.826C141.488 98.7024 130.931 95.3287 125.047 93.5128C117.517 91.1895 110.947 90.4418 106.363 90.1925L106.114 62.4375Z" fill="url(#paint0_radial_2354_366)"/>
<path d="M142.993 150.767C147.112 150.767 150.452 147.427 150.452 143.307C150.452 139.187 147.112 135.848 142.993 135.848C138.873 135.848 135.533 139.187 135.533 143.307C135.533 147.427 138.873 150.767 142.993 150.767Z" fill="#1836B2"/>
<defs>
<radialGradient id="paint0_radial_2354_366" cx="0" cy="0" r="1" gradientUnits="userSpaceOnUse" gradientTransform="translate(162.068 175.26) scale(182.308)">
<stop stop-color="#1836B2"/>
<stop offset="0.0040322" stop-color="#1936B2"/>
<stop offset="0.1581" stop-color="#4245BA"/>
<stop offset="0.3161" stop-color="#6451C1"/>
<stop offset="0.4765" stop-color="#7E5AC6"/>
<stop offset="0.6403" stop-color="#9161C9"/>
<stop offset="0.8096" stop-color="#9C65CB"/>
<stop offset="0.9931" stop-color="#A066CC"/>
</radialGradient>
</defs>
</svg>
