<svg width="300" height="300" viewBox="0 0 300 300" fill="none" xmlns="http://www.w3.org/2000/svg">
<g clip-path="url(#clip0_745_667)">
<path d="M196.533 6.56934H103.61L28.4346 61.1934L-0.273438 149.562L28.4346 237.942L103.61 292.555H196.533L271.708 237.942L300.427 149.562L271.708 61.1934L196.533 6.56934Z" fill="black"/>
<path d="M192.7 18.3723H107.452L38.4739 68.4854L12.1309 149.562L38.4739 230.639L107.452 280.752H192.7L261.667 230.639L288.01 149.562L261.667 68.4854L192.7 18.3723Z" stroke="#DA9D01" stroke-width="0.8" stroke-miterlimit="10"/>
<path d="M96.6125 53.4087L203.671 53.9233L204.448 189.427C204.021 195.109 202.642 204.022 197.901 213.733C194.934 219.821 189.404 230.77 176.868 238.39C161.156 247.938 145.127 245.682 140.835 244.938C122.364 241.719 111.831 229.763 108.602 225.974C105.448 222.274 94.3789 209.31 95.8461 192.701C96.1965 188.693 97.1052 178.423 104.123 175.631C108.7 173.814 115.368 175.369 118.609 180.285C121.083 184.04 122.244 190.774 117.919 194.244C114.426 197.058 108.602 196.719 104.649 192.865C104.638 195.109 104.835 204.69 112.061 211.314C119.583 218.212 129.58 217.193 134.671 216.668C137.868 216.339 144.372 215.595 150.689 211.073C162.262 202.785 163.532 188.715 163.707 186.339C164.638 173.102 164.145 162.077 163.434 154.084C162.317 141.449 161.627 133.369 157.576 123.219C155.036 116.847 151.007 107.091 141.372 98.2226C131.572 89.2116 121.149 85.8722 115.335 84.0875C107.901 81.7992 101.419 81.0547 96.8862 80.8138L96.6125 53.4087Z" fill="url(#paint0_radial_745_667)"/>
<path d="M133.029 140.639C137.098 140.639 140.397 137.34 140.397 133.27C140.397 129.2 137.098 125.901 133.029 125.901C128.959 125.901 125.66 129.2 125.66 133.27C125.66 137.34 128.959 140.639 133.029 140.639Z" fill="#DA9D01"/>
</g>
<defs>
<radialGradient id="paint0_radial_745_667" cx="0" cy="0" r="1" gradientUnits="userSpaceOnUse" gradientTransform="translate(150.074 149.564) scale(180.034 180.034)">
<stop offset="0.1844" stop-color="#DA9D01"/>
<stop offset="1" stop-color="#FFF4BF"/>
</radialGradient>
<clipPath id="clip0_745_667">
<rect width="300" height="300" fill="white"/>
</clipPath>
</defs>
</svg>
