<svg width="24" height="24" viewBox="0 0 24 24" fill="none" xmlns="http://www.w3.org/2000/svg">
<path d="M4.98487 7.1968C6.19327 7.1968 7.17287 6.2172 7.17287 5.0088C7.17287 3.8004 6.19327 2.8208 4.98487 2.8208C3.77648 2.8208 2.79688 3.8004 2.79688 5.0088C2.79688 6.2172 3.77648 7.1968 4.98487 7.1968Z" fill="#0077B5"/>
<path d="M9.23575 8.85518V20.9942H13.0047V14.9912C13.0047 13.4072 13.3027 11.8732 15.2667 11.8732C17.2037 11.8732 17.2277 13.6842 17.2277 15.0912V20.9952H20.9988V14.3382C20.9988 11.0682 20.2948 8.55518 16.4728 8.55518C14.6378 8.55518 13.4078 9.56218 12.9047 10.5152H12.8537V8.85518H9.23575ZM3.09375 8.85518H6.86875V20.9942H3.09375V8.85518Z" fill="#0077B5"/>
</svg>
