<svg width="24" height="24" viewBox="0 0 24 24" fill="none" xmlns="http://www.w3.org/2000/svg">
<g clip-path="url(#clip0_521_3185)">
<path d="M23.5006 6.50805C23.3647 6.02328 23.1 5.5844 22.7346 5.23805C22.3589 4.88106 21.8984 4.62569 21.3966 4.49605C19.5186 4.00105 11.9946 4.00105 11.9946 4.00105C8.85795 3.96537 5.72205 4.12233 2.60462 4.47105C2.10281 4.61027 1.64318 4.87134 1.26662 5.23105C0.896617 5.58705 0.628617 6.02605 0.488617 6.50705C0.15231 8.3188 -0.0110908 10.1584 0.000617183 12.0011C-0.0113828 13.8421 0.151617 15.6811 0.488617 17.4951C0.625617 17.9741 0.892617 18.4111 1.26362 18.7641C1.63462 19.1171 2.09662 19.3721 2.60462 19.5071C4.50762 20.0011 11.9946 20.0011 11.9946 20.0011C15.1353 20.0368 18.2752 19.8798 21.3966 19.5311C21.8984 19.4014 22.3589 19.146 22.7346 18.7891C23.0999 18.4428 23.3643 18.0038 23.4996 17.5191C23.8447 15.708 24.0125 13.8676 24.0006 12.0241C24.0266 10.1727 23.859 8.32362 23.5006 6.50705V6.50805ZM9.60262 15.4251V8.57805L15.8626 12.0021L9.60262 15.4251Z" fill="#FF0000"/>
</g>
<defs>
<clipPath id="clip0_521_3185">
<rect width="24" height="24" fill="white"/>
</clipPath>
</defs>
</svg>
