<svg width="24" height="24" viewBox="0 0 24 24" fill="none" xmlns="http://www.w3.org/2000/svg">
<path d="M22.7433 11.7584C22.7433 10.3933 21.6321 9.28304 20.2677 9.28304C19.6766 9.28304 19.1237 9.49928 18.6775 9.87752C18.6631 9.8864 18.6482 9.8948 18.6341 9.90392C17.0244 8.87408 14.8898 8.21648 12.5287 8.1272L13.938 4.11968L17.4554 4.96064C17.4583 6.07256 18.3629 6.97664 19.4762 6.97664C20.5903 6.97664 21.4975 6.07016 21.4975 4.9556C21.4975 3.84056 20.5903 2.93408 19.4762 2.93408C18.6293 2.93408 17.9057 3.45776 17.6057 4.19648L13.4383 3.20048L11.7077 8.11808C9.24549 8.1644 7.01421 8.83064 5.34453 9.89504C4.89501 9.50504 4.33413 9.2828 3.73221 9.2828C2.36733 9.2828 1.25781 10.3933 1.25781 11.7582C1.25781 12.6025 1.69341 13.3825 2.39925 13.8366C2.35418 14.0839 2.33066 14.3347 2.32893 14.5861C2.32893 18.1587 6.65925 21.0654 11.9815 21.0654C17.3047 21.0654 21.6353 18.1587 21.6353 14.5861C21.634 14.3419 21.6121 14.0982 21.57 13.8577C22.2948 13.407 22.7433 12.6157 22.7433 11.7584ZM15.264 14.9631C15.0643 14.9632 14.8665 14.9238 14.682 14.8474C14.4975 14.7709 14.3298 14.6589 14.1886 14.5176C14.0475 14.3763 13.9355 14.2086 13.8592 14.0241C13.7829 13.8395 13.7437 13.6417 13.7438 13.442C13.7439 13.1412 13.8331 12.8471 14.0003 12.597C14.1675 12.3469 14.4051 12.152 14.683 12.037C14.961 11.9219 15.2668 11.8919 15.5618 11.9507C15.8568 12.0094 16.1278 12.1544 16.3405 12.3672C16.5531 12.5799 16.6979 12.851 16.7565 13.1461C16.815 13.4411 16.7848 13.7469 16.6696 14.0248C16.5543 14.3027 16.3593 14.5402 16.1091 14.7072C15.8589 14.8742 15.5648 14.9633 15.264 14.9631ZM15.5666 17.5566C15.521 17.6031 14.4307 18.7136 11.9645 18.7136C9.48453 18.7136 8.49333 17.5882 8.45181 17.5398C8.38505 17.4613 8.35206 17.3597 8.36007 17.257C8.36807 17.1543 8.41642 17.059 8.49453 16.9918C8.57271 16.9255 8.67379 16.8925 8.77604 16.9C8.87828 16.9074 8.97352 16.9547 9.04125 17.0317C9.06333 17.0566 9.89085 17.9367 11.9645 17.9367C14.0726 17.9367 14.9978 17.0252 15.0077 17.0163C15.0799 16.9451 15.1772 16.905 15.2786 16.9045C15.3801 16.904 15.4777 16.9432 15.5507 17.0138C15.6236 17.0843 15.6661 17.1805 15.6691 17.2819C15.6721 17.3833 15.6353 17.4819 15.5666 17.5566ZM7.39461 13.442C7.39112 13.24 7.4279 13.0394 7.5028 12.8518C7.57769 12.6642 7.68921 12.4934 7.83084 12.3494C7.97247 12.2053 8.14137 12.091 8.32768 12.0129C8.514 11.9349 8.71399 11.8947 8.91599 11.8948C9.11798 11.8949 9.31794 11.9353 9.50418 12.0135C9.69042 12.0917 9.85921 12.2062 10.0007 12.3504C10.1422 12.4946 10.2536 12.6655 10.3283 12.8531C10.403 13.0408 10.4396 13.2415 10.4359 13.4434C10.4286 13.8421 10.2651 14.2219 9.98059 14.5011C9.69605 14.7804 9.31323 14.9368 8.91455 14.9366C8.51586 14.9364 8.13319 14.7797 7.84892 14.5001C7.56465 14.2206 7.4015 13.8406 7.39461 13.442Z" fill="#FF4500"/>
</svg>
