<svg width="24" height="24" viewBox="0 0 24 24" fill="none" xmlns="http://www.w3.org/2000/svg">
<path d="M21.0652 4.20229L21.0331 4.18223L16.9741 2.1825L12.593 8.02392L14.6086 10.7116C14.5483 11.7252 14.1185 12.6815 13.4005 13.3995C12.6825 14.1174 11.7262 14.5473 10.7126 14.6076L8.02497 12.5919L2.18359 16.9729L4.16669 20.998L4.18338 21.032L4.20349 21.0641C4.30931 21.2346 4.45702 21.3752 4.63255 21.4725C4.80809 21.5698 5.0056 21.6205 5.20628 21.6199H6.25366C8.27173 21.6199 10.27 21.2224 12.1345 20.4501C13.9989 19.6778 15.693 18.5459 17.12 17.1189C18.547 15.6919 19.6789 13.9978 20.4512 12.1333C21.2235 10.2689 21.621 8.27058 21.621 6.25251V5.20509C21.6216 5.00441 21.5709 4.8069 21.4736 4.63137C21.3763 4.45583 21.2357 4.30812 21.0652 4.20229ZM20.121 6.25251C20.121 13.899 13.9001 20.1199 6.25366 20.1199H5.40616L4.07931 17.4263L8.02525 14.4668L10.2221 16.1145H10.4721C11.9684 16.1128 13.403 15.5176 14.461 14.4596C15.5191 13.4015 16.1142 11.967 16.1159 10.4707V10.2207L14.4683 8.02387L17.4274 4.07817L20.121 5.40525V6.25251Z" fill="#7F7F7F"/>
</svg>
