<svg width="36" height="36" viewBox="0 0 36 36" fill="none" xmlns="http://www.w3.org/2000/svg">
<path d="M10.5 12H19.5M10.5 18H25.5H10.5Z" stroke="#024099" stroke-width="1.5" stroke-linecap="round" stroke-linejoin="round"/>
<path d="M4.5 30.435V7.5C4.5 6.70435 4.81607 5.94129 5.37868 5.37868C5.94129 4.81607 6.70435 4.5 7.5 4.5H28.5C29.2956 4.5 30.0587 4.81607 30.6213 5.37868C31.1839 5.94129 31.5 6.70435 31.5 7.5V22.5C31.5 23.2956 31.1839 24.0587 30.6213 24.6213C30.0587 25.1839 29.2956 25.5 28.5 25.5H11.9415C11.4919 25.5001 11.048 25.6012 10.6427 25.7959C10.2374 25.9906 9.88103 26.274 9.6 26.625L6.1035 30.996C5.98714 31.1418 5.82834 31.2479 5.64906 31.2995C5.46978 31.3512 5.27889 31.3458 5.10279 31.2842C4.92669 31.2226 4.77409 31.1078 4.6661 30.9556C4.55811 30.8035 4.50007 30.6216 4.5 30.435V30.435Z" stroke="#024099" stroke-width="1.5"/>
</svg>
