<svg width="36" height="36" viewBox="0 0 36 36" fill="none" xmlns="http://www.w3.org/2000/svg">
<path d="M16.6743 33.3957C14.9153 30.9477 13.4199 28.9027 12.1489 27.1645C9.87692 24.0575 8.32194 21.931 7.26033 20.2364C6.44234 18.9306 5.94756 17.9263 5.65203 16.9683C5.35847 16.0167 5.25 15.0734 5.25 13.875C5.25 7.48323 10.6564 2.25 17.3906 2.25C24.1249 2.25 29.5312 7.48323 29.5312 13.875C29.5312 15.0734 29.4228 16.0167 29.1292 16.9683C28.8337 17.9263 28.3389 18.9306 27.5209 20.2364C26.4593 21.931 24.9043 24.0575 22.6323 27.1645C21.3613 28.9027 19.8659 30.9477 18.107 33.3956C17.7662 33.8681 17.0151 33.8681 16.6743 33.3957ZM17.3906 19.7812C20.7421 19.7812 23.5117 17.1655 23.5117 13.875C23.5117 10.5845 20.7421 7.96875 17.3906 7.96875C14.0392 7.96875 11.2695 10.5845 11.2695 13.875C11.2695 17.1655 14.0392 19.7812 17.3906 19.7812Z" stroke="#024099" stroke-width="1.5"/>
</svg>
