<svg width="36" height="36" viewBox="0 0 36 36" fill="none" xmlns="http://www.w3.org/2000/svg">
<path d="M31.5959 6.30313L31.5477 6.27304L25.4592 3.27344L18.8875 12.0356L21.911 16.0671C21.8205 17.5875 21.1757 19.0219 20.0988 20.0989C19.0218 21.1758 17.5873 21.8206 16.0669 21.911L12.0355 18.8876L3.27344 25.4591L6.24808 31.4967L6.27311 31.5477L6.30328 31.5958C6.46202 31.8516 6.68358 32.0625 6.94688 32.2084C7.21018 32.3544 7.50644 32.4305 7.80747 32.4295H9.37854C12.4056 32.4295 15.4031 31.8333 18.1998 30.6749C20.9965 29.5164 23.5376 27.8185 25.6781 25.678C27.8186 23.5375 29.5165 20.9964 30.6749 18.1997C31.8333 15.403 32.4295 12.4056 32.4295 9.37846V7.80733C32.4305 7.5063 32.3544 7.21004 32.2085 6.94674C32.0625 6.68345 31.8517 6.46188 31.5959 6.30313Z" stroke="#024099" stroke-width="1.5"/>
</svg>
