<svg width="24" height="24" viewBox="0 0 24 24" fill="none" xmlns="http://www.w3.org/2000/svg">
<path d="M18.8601 20.276C19.1274 20.0544 19.3836 19.8201 19.6286 19.5731M17.9086 12.0001C17.9073 10.5211 17.3509 9.09648 16.3495 8.00811C15.3481 6.91974 13.9746 6.24689 12.5009 6.12267C11.0271 5.99846 9.56045 6.43195 8.39102 7.33736C7.22158 8.24277 6.43459 9.55414 6.18574 11.012C5.9369 12.4699 6.24434 13.9681 7.04722 15.2102C7.85011 16.4522 9.08996 17.3477 10.5215 17.7194C11.953 18.091 13.4718 17.9119 14.7776 17.2173C16.0833 16.5227 17.0807 15.3633 17.5726 13.9686C17.7956 13.3362 17.9094 12.6706 17.9091 12.0001H17.9086Z" stroke="#7F7F7F" stroke-width="2" stroke-linecap="round" stroke-linejoin="round"/>
<path d="M22.75 12C22.7529 10.3331 22.368 8.68829 21.6259 7.19566C20.8838 5.70302 19.8048 4.40342 18.474 3.39953C17.1433 2.39564 15.5973 1.71497 13.9583 1.41132C12.3192 1.10766 10.632 1.18933 9.02998 1.64987C7.42793 2.11041 5.95492 2.93721 4.72736 4.06493C3.49979 5.19266 2.55131 6.5904 1.95684 8.14774C1.36237 9.70507 1.13821 11.3793 1.30207 13.0382C1.46593 14.697 2.01332 16.2951 2.90099 17.706L2.23399 21.766L6.29399 21.099C7.75573 22.0199 9.41827 22.574 11.1402 22.7144C12.8621 22.8547 14.5924 22.577 16.184 21.905" stroke="#7F7F7F" stroke-width="2" stroke-linecap="round" stroke-linejoin="round"/>
<path d="M17.5707 13.968C16.8487 15.729 18.0242 16.6765 19.0357 16.9065C20.2692 17.1865 22.7482 15.897 22.7482 12" stroke="#7F7F7F" stroke-width="2" stroke-linecap="round" stroke-linejoin="round"/>
</svg>
