<svg width="24" height="24" viewBox="0 0 24 24" fill="none" xmlns="http://www.w3.org/2000/svg">
<path d="M11.9991 7.1931C9.33898 7.1931 7.19211 9.33998 7.19211 12.0001C7.19211 14.6603 9.33898 16.8072 11.9991 16.8072C14.6593 16.8072 16.8062 14.6603 16.8062 12.0001C16.8062 9.33998 14.6593 7.1931 11.9991 7.1931ZM11.9991 15.1243C10.2788 15.1243 8.87492 13.7204 8.87492 12.0001C8.87492 10.2798 10.2788 8.87591 11.9991 8.87591C13.7195 8.87591 15.1234 10.2798 15.1234 12.0001C15.1234 13.7204 13.7195 15.1243 11.9991 15.1243ZM17.0031 5.87592C16.382 5.87592 15.8804 6.37748 15.8804 6.99857C15.8804 7.61966 16.382 8.12123 17.0031 8.12123C17.6241 8.12123 18.1257 7.62201 18.1257 6.99857C18.1259 6.85109 18.097 6.70502 18.0406 6.56873C17.9843 6.43244 17.9016 6.30861 17.7973 6.20432C17.693 6.10004 17.5692 6.01735 17.4329 5.961C17.2966 5.90464 17.1505 5.87573 17.0031 5.87592V5.87592ZM21.3695 12.0001C21.3695 10.7064 21.3812 9.42435 21.3085 8.13295C21.2359 6.63295 20.8937 5.3017 19.7968 4.20482C18.6976 3.1056 17.3687 2.76576 15.8687 2.6931C14.5749 2.62045 13.2929 2.63217 12.0015 2.63217C10.7077 2.63217 9.4257 2.62045 8.13429 2.6931C6.63429 2.76576 5.30304 3.10795 4.20617 4.20482C3.10695 5.30404 2.7671 6.63295 2.69445 8.13295C2.62179 9.4267 2.63351 10.7087 2.63351 12.0001C2.63351 13.2915 2.62179 14.5759 2.69445 15.8673C2.7671 17.3673 3.10929 18.6986 4.20617 19.7954C5.30539 20.8947 6.63429 21.2345 8.13429 21.3072C9.42805 21.3798 10.7101 21.3681 12.0015 21.3681C13.2952 21.3681 14.5773 21.3798 15.8687 21.3072C17.3687 21.2345 18.6999 20.8923 19.7968 19.7954C20.896 18.6962 21.2359 17.3673 21.3085 15.8673C21.3835 14.5759 21.3695 13.2939 21.3695 12.0001V12.0001ZM19.307 17.5267C19.1359 17.9533 18.9296 18.272 18.5991 18.6001C18.2687 18.9306 17.9523 19.1368 17.5257 19.3079C16.2929 19.7978 13.3655 19.6876 11.9991 19.6876C10.6327 19.6876 7.70304 19.7978 6.47023 19.3103C6.04367 19.1392 5.72492 18.9329 5.39679 18.6025C5.06632 18.272 4.86007 17.9556 4.68898 17.529C4.20148 16.2939 4.31164 13.3665 4.31164 12.0001C4.31164 10.6337 4.20148 7.70404 4.68898 6.47123C4.86007 6.04467 5.06632 5.72592 5.39679 5.39779C5.72726 5.06967 6.04367 4.86107 6.47023 4.68998C7.70304 4.20248 10.6327 4.31263 11.9991 4.31263C13.3655 4.31263 16.2952 4.20248 17.5281 4.68998C17.9546 4.86107 18.2734 5.06732 18.6015 5.39779C18.932 5.72826 19.1382 6.04467 19.3093 6.47123C19.7968 7.70404 19.6866 10.6337 19.6866 12.0001C19.6866 13.3665 19.7968 16.2939 19.307 17.5267Z" fill="#FFF6ED"/>
</svg>
