<svg width="24" height="24" viewBox="0 0 24 24" fill="none" xmlns="http://www.w3.org/2000/svg">
<path d="M2.93477 4.20241L2.96688 4.18235L7.02593 2.18262L11.407 8.02404L9.39138 10.7117C9.4517 11.7253 9.88153 12.6816 10.5995 13.3996C11.3175 14.1176 12.2738 14.5474 13.2874 14.6077L15.975 12.5921L21.8164 16.973L19.8333 20.9982L19.8166 21.0321L19.7965 21.0642C19.6907 21.2347 19.543 21.3753 19.3674 21.4726C19.1919 21.5699 18.9944 21.6206 18.7937 21.62H17.7463C15.7283 21.62 13.73 21.2225 11.8655 20.4502C10.0011 19.6779 8.30697 18.546 6.87998 17.119C5.453 15.692 4.32105 13.9979 3.54877 12.1335C2.77649 10.269 2.37901 8.2707 2.37902 6.25263V5.20521C2.37837 5.00453 2.42911 4.80702 2.52639 4.63149C2.62367 4.45596 2.76426 4.30824 2.93477 4.20241ZM3.87902 6.25263C3.87902 13.8991 10.0999 20.12 17.7463 20.12H18.5938L19.9207 17.4264L15.9747 14.467L13.7779 16.1146H13.5279C12.0316 16.1129 10.597 15.5178 9.53898 14.4597C8.48094 13.4017 7.88579 11.9671 7.88412 10.4708V10.2208L9.53173 8.02399L6.5726 4.07829L3.87902 5.40537V6.25263Z" fill="black" fill-opacity="0.54"/>
</svg>
