<svg width="24" height="24" viewBox="0 0 24 24" fill="none" xmlns="http://www.w3.org/2000/svg">
<path d="M20.25 10.5001C20.25 12.6189 19.5094 14.5501 18.1688 15.947C16.8281 17.3439 15.2063 18.0001 13.5 18.0001C11.7938 18.0001 10.7063 17.447 9.99375 16.8751L8.98125 21.1689C8.94156 21.3334 8.84805 21.4799 8.71557 21.5853C8.58309 21.6906 8.41923 21.7486 8.25 21.7501L8.08125 21.7314C7.98519 21.7093 7.89443 21.6685 7.81416 21.6113C7.73389 21.554 7.66568 21.4816 7.61344 21.398C7.5612 21.3144 7.52595 21.2213 7.5097 21.1241C7.49345 21.0269 7.49653 20.9274 7.51875 20.8314L10.5188 8.0814C10.5635 7.88746 10.6835 7.71924 10.8523 7.61375C11.021 7.50826 11.2248 7.47414 11.4188 7.5189C11.6127 7.56365 11.7809 7.68362 11.8864 7.8524C11.9919 8.02118 12.026 8.22496 11.9813 8.4189L10.3969 15.1501C10.6875 15.5626 11.5594 16.5001 13.5 16.5001C16.0781 16.5001 18.75 14.2595 18.75 10.5001C18.75 9.44566 18.5029 8.40584 18.0286 7.46405C17.5543 6.52225 16.8659 5.70468 16.0187 5.07688C15.1715 4.44907 14.1889 4.0285 13.1499 3.84887C12.1108 3.66924 11.0441 3.73555 10.0352 4.04248C9.02642 4.34942 8.10353 4.88844 7.34057 5.61634C6.57761 6.34424 5.9958 7.24076 5.64178 8.23405C5.28776 9.22733 5.17137 10.2897 5.30196 11.3361C5.43255 12.3825 5.80647 13.3837 6.39375 14.2595C6.44856 14.3414 6.4867 14.4332 6.50599 14.5299C6.52529 14.6265 6.52536 14.7259 6.50621 14.8226C6.48705 14.9192 6.44905 15.0111 6.39436 15.0931C6.33968 15.175 6.26939 15.2454 6.1875 15.3001C6.10605 15.3562 6.0142 15.3954 5.91736 15.4153C5.82053 15.4353 5.72068 15.4357 5.62369 15.4165C5.5267 15.3973 5.43455 15.3588 5.35266 15.3034C5.27076 15.248 5.2008 15.1768 5.14688 15.0939C4.42939 14.0234 3.97266 12.7997 3.81331 11.5208C3.65396 10.242 3.79642 8.94363 4.22927 7.72978C4.66211 6.51593 5.37331 5.42036 6.30585 4.53088C7.23839 3.64141 8.36633 2.98277 9.59928 2.60776C10.8322 2.23275 12.1359 2.15179 13.4058 2.37138C14.6756 2.59097 15.8764 3.105 16.9118 3.87227C17.9472 4.63954 18.7885 5.6387 19.3682 6.78968C19.9479 7.94065 20.2499 9.21143 20.25 10.5001V10.5001Z" fill="#FFF6ED"/>
</svg>
