<svg width="24" height="24" viewBox="0 0 24 24" fill="none" xmlns="http://www.w3.org/2000/svg">
<path d="M20.7117 13.5611C20.8078 13.0337 20.8594 12.4947 20.8594 11.9556C20.8594 10.7603 20.625 9.60012 20.1633 8.51028C19.718 7.45559 19.0782 6.50872 18.2649 5.69543C17.4584 4.88689 16.5024 4.24291 15.45 3.79934C14.3578 3.33762 13.2 3.10325 12.0047 3.10325C11.4422 3.10325 10.8774 3.15715 10.3289 3.26262C9.57005 2.86049 8.72448 2.6497 7.86564 2.64856C6.46642 2.64856 5.14924 3.19465 4.16017 4.18372C3.67212 4.66927 3.28515 5.24675 3.02165 5.88277C2.75815 6.51879 2.62334 7.20074 2.62502 7.88919C2.62502 8.77981 2.8547 9.65637 3.28361 10.4298C3.19689 10.9314 3.15002 11.4447 3.15002 11.9556C3.15002 13.1509 3.38439 14.3111 3.84611 15.4009C4.29142 16.4556 4.92892 17.4025 5.74221 18.2157C6.55549 19.029 7.50236 19.6665 8.55705 20.1118C9.64924 20.5736 10.8071 20.8079 12.0024 20.8079C12.5227 20.8079 13.043 20.7611 13.5539 20.6697C14.3391 21.1126 15.225 21.3493 16.1321 21.3493C17.5313 21.3493 18.8485 20.8056 19.8375 19.8142C20.8289 18.8251 21.3727 17.5079 21.3727 16.1087C21.375 15.2181 21.1453 14.3392 20.7117 13.5611ZM18.6469 18.6236C17.9742 19.2986 17.086 19.6642 16.1344 19.6642C15.5227 19.6642 14.9203 19.5048 14.386 19.2025L13.8586 18.9048L13.261 19.0103C12.8438 19.0853 12.4219 19.1228 12.0047 19.1228C11.0344 19.1228 10.0992 18.9329 9.2133 18.5579C8.36252 18.1993 7.59611 17.6837 6.93517 17.0228C6.28091 16.3708 5.75953 15.5978 5.40002 14.747C5.02502 13.8634 4.83752 12.9282 4.83752 11.9579C4.83752 11.5501 4.87502 11.1329 4.94533 10.7204L5.04845 10.1322L4.75783 9.6095C4.4647 9.08348 4.31062 8.49137 4.31017 7.88919C4.31017 6.93762 4.67814 6.04934 5.3508 5.37668C6.0258 4.70403 6.91408 4.33606 7.86564 4.33606C8.44929 4.33764 9.02372 4.48165 9.53908 4.75559L10.0641 5.03215L10.6453 4.91965C11.0883 4.83528 11.5453 4.79075 12.0047 4.79075C12.975 4.79075 13.9102 4.98059 14.7938 5.35325C15.6492 5.71418 16.4133 6.22981 17.0719 6.8884C17.7328 7.547 18.2485 8.3134 18.6094 9.16653C18.9844 10.0501 19.1719 10.9853 19.1719 11.9556C19.1719 12.3868 19.1321 12.8228 19.0524 13.2564L18.9422 13.854L19.2375 14.3837C19.5328 14.9111 19.6875 15.5087 19.6875 16.1111C19.6875 17.065 19.3196 17.9509 18.6469 18.6236V18.6236ZM13.6735 10.9267L11.6016 10.4673C10.8141 10.2868 9.90705 10.0501 9.90705 9.30715C9.90705 8.56419 10.5422 8.04387 11.6906 8.04387C14.0039 8.04387 13.793 9.63294 14.9414 9.63294C15.5461 9.63294 16.0758 9.27668 16.0758 8.66731C16.0758 7.24231 13.793 6.17122 11.8571 6.17122C9.75471 6.17122 7.51643 7.06418 7.51643 9.44075C7.51643 10.5845 7.92424 11.8032 10.1789 12.3681L12.9774 13.0665C13.8235 13.2751 14.0367 13.7509 14.0367 14.1822C14.0367 14.897 13.3266 15.5954 12.0399 15.5954C9.52736 15.5954 9.87658 13.6618 8.53127 13.6618C7.92658 13.6618 7.4883 14.079 7.4883 14.672C7.4883 15.8298 8.89455 17.3767 12.0399 17.3767C15.0328 17.3767 16.5164 15.9353 16.5164 14.0017C16.5164 12.7572 15.9422 11.4329 13.6735 10.9267Z" fill="#FFF6ED"/>
</svg>
