<svg width="24" height="24" viewBox="0 0 24 24" fill="none" xmlns="http://www.w3.org/2000/svg">
<path d="M21.9455 2.76505C21.7299 2.58633 21.4699 2.46928 21.1932 2.42632C20.9164 2.38337 20.6332 2.4161 20.3735 2.52105L2.45651 9.75405C2.16698 9.87303 1.92049 10.0773 1.74975 10.3396C1.57901 10.602 1.4921 10.9101 1.50056 11.223C1.50903 11.5359 1.61246 11.8388 1.79713 12.0916C1.9818 12.3443 2.23897 12.5349 2.53451 12.6381L6.40051 13.9801L8.49551 20.9061C8.49951 20.9201 8.51251 20.9291 8.51851 20.9421C8.5401 20.9973 8.57162 21.0481 8.61151 21.0921C8.67213 21.1598 8.75037 21.2093 8.83751 21.2351C8.84751 21.2391 8.85451 21.2481 8.86451 21.2501H8.87051L8.87351 21.2511C8.95087 21.2677 9.03127 21.2636 9.10651 21.2391C9.11451 21.2371 9.12251 21.2371 9.13151 21.2341C9.20376 21.2087 9.26914 21.1669 9.32251 21.1121C9.32851 21.1051 9.33851 21.1041 9.34451 21.0981L12.3575 17.7721L16.7545 21.1771C17.0215 21.3861 17.3505 21.4991 17.6895 21.4991C18.4235 21.4991 19.0565 20.9851 19.2075 20.2681L22.4695 4.25005C22.5248 3.97813 22.5053 3.69628 22.413 3.43458C22.3208 3.17287 22.1592 2.94113 21.9455 2.76405V2.76505ZM9.58851 15.2951L8.88151 18.7321L7.40651 13.8541L14.7215 10.0441L9.72451 15.0421C9.65531 15.1112 9.60801 15.1992 9.58851 15.2951ZM18.2275 20.0671C18.2087 20.1577 18.167 20.2421 18.1062 20.3119C18.0454 20.3818 17.9677 20.4349 17.8805 20.4661C17.7954 20.4988 17.7033 20.5088 17.6132 20.4951C17.5231 20.4815 17.438 20.4446 17.3665 20.3881L12.6035 16.6991C12.5039 16.6222 12.3791 16.5857 12.2538 16.5968C12.1285 16.6079 12.012 16.6659 11.9275 16.7591L9.83051 19.0701L10.5365 15.6431L17.7255 8.45305C17.8097 8.36859 17.8609 8.25681 17.8699 8.13789C17.879 8.01898 17.8452 7.90075 17.7747 7.80455C17.7042 7.70836 17.6017 7.64052 17.4855 7.61329C17.3694 7.58606 17.2474 7.60123 17.1415 7.65605L6.77851 13.0541L2.86151 11.6921C2.75765 11.6578 2.66707 11.5919 2.60237 11.5038C2.53767 11.4156 2.50206 11.3094 2.50051 11.2001C2.49553 11.0897 2.52501 10.9806 2.58486 10.8878C2.6447 10.7949 2.73196 10.723 2.83451 10.6821L20.7485 3.44905C20.8403 3.41005 20.9412 3.39744 21.0398 3.41263C21.1383 3.42782 21.2307 3.47022 21.3065 3.53505C21.3819 3.59604 21.4388 3.67678 21.471 3.76825C21.5031 3.85972 21.5092 3.95833 21.4885 4.05305L18.2275 20.0681V20.0671Z" fill="#FFF6ED"/>
</svg>
