<svg width="24" height="24" viewBox="0 0 24 24" fill="none" xmlns="http://www.w3.org/2000/svg">
<g clip-path="url(#clip0_395_2225)">
<path d="M16.0394 3.71939C17.2788 3.71939 18.3977 4.22648 19.186 5.04061C20.1666 4.85086 21.091 4.50511 21.9216 4.02623C21.6003 5.002 20.9166 5.8206 20.0275 6.33848C20.8975 6.2361 21.7304 6.0126 22.5033 5.67848C21.9239 6.51623 21.1945 7.25385 20.3523 7.84335C20.3602 8.02223 20.3647 8.20298 20.3647 8.38295C20.3647 13.9078 16.0286 20.2802 8.09956 20.2802C5.66581 20.2802 3.39893 19.5857 1.49245 18.3999C1.83351 18.4396 2.17659 18.4594 2.51995 18.4592C4.53933 18.4592 6.39893 17.7913 7.87456 16.6685C5.98718 16.6363 4.39418 15.4262 3.84781 13.7661C4.1154 13.8162 4.38706 13.8414 4.65931 13.8414C5.05118 13.8414 5.43293 13.7908 5.79368 13.6948C3.82193 13.3119 2.33581 11.6218 2.33581 9.59488V9.54128C2.91743 9.85478 3.58156 10.043 4.28918 10.0648C3.13193 9.31401 2.37106 8.03603 2.37106 6.58513C2.37106 5.81826 2.58408 5.09976 2.95495 4.48439C5.08045 7.01263 8.25671 8.67763 11.8398 8.85276C11.7659 8.54749 11.7277 8.22501 11.7277 7.90063C11.7277 5.59101 13.6578 3.71939 16.0394 3.71939V3.71939ZM22.5032 5.67925H22.507H22.5032ZM16.0394 2.21948C13.0941 2.21948 10.6541 4.37125 10.2783 7.1515C7.86853 6.66738 5.67703 5.39163 4.10241 3.52C3.96164 3.35256 3.78595 3.21793 3.58766 3.12555C3.38936 3.03318 3.17326 2.9853 2.95451 2.98528C2.91522 2.98529 2.87595 2.98679 2.83678 2.98978C2.59902 3.00882 2.3692 3.08419 2.16634 3.20965C1.96348 3.33511 1.7934 3.50706 1.67016 3.71128C1.14721 4.57898 0.870905 5.57292 0.871008 6.58603C0.871008 7.26215 0.992485 7.92065 1.22276 8.5364C0.977508 8.80902 0.836133 9.16565 0.836133 9.54215V9.59577C0.836133 11.065 1.41701 12.4285 2.38151 13.4504C2.32601 13.7076 2.33838 13.9769 2.42313 14.2349C2.75578 15.247 3.36141 16.1193 4.14666 16.7837C3.61938 16.9011 3.07528 16.9604 2.51988 16.9604C2.22626 16.9604 1.94051 16.9442 1.67013 16.9112C1.61013 16.9037 1.55088 16.9011 1.49126 16.9011C0.861258 16.9011 0.289383 17.2982 0.077133 17.9038C-0.155742 18.5676 0.102656 19.3033 0.699633 19.675C2.91516 21.0535 5.47413 21.7813 8.09914 21.7813C16.6311 21.7813 21.7634 15.1022 21.8631 8.57798C22.5633 7.99874 23.1818 7.3274 23.7018 6.58223C23.8992 6.32294 24.006 6.0059 24.0055 5.67998C24.0055 5.1696 23.7502 4.71848 23.3613 4.44733C23.5297 3.87021 23.3376 3.24546 22.8689 2.86371C22.5951 2.64096 22.2595 2.52771 21.922 2.52771C21.659 2.52746 21.4005 2.59667 21.1728 2.72833C20.677 3.01411 20.1468 3.24023 19.5884 3.403C18.5781 2.64288 17.3256 2.21951 16.0394 2.21948V2.21948Z" fill="#FFF6ED"/>
</g>
<defs>
<clipPath id="clip0_395_2225">
<rect width="24" height="24" fill="white"/>
</clipPath>
</defs>
</svg>
