<svg width="20" height="20" viewBox="0 0 20 20" fill="none" xmlns="http://www.w3.org/2000/svg">
<g opacity="0.54">
<path fill-rule="evenodd" clip-rule="evenodd" d="M10.0013 17.4994C14.1434 17.4994 17.5013 14.1414 17.5013 9.99935C17.5013 5.85727 14.1434 2.49935 10.0013 2.49935C5.85922 2.49935 2.5013 5.85727 2.5013 9.99935C2.5013 14.1414 5.85922 17.4994 10.0013 17.4994ZM10.0013 18.3327C14.6038 18.3327 18.3346 14.6019 18.3346 9.99935C18.3346 5.39685 14.6038 1.66602 10.0013 1.66602C5.3988 1.66602 1.66797 5.39685 1.66797 9.99935C1.66797 14.6019 5.3988 18.3327 10.0013 18.3327Z" fill="black"/>
<path d="M5 14.8457C5 14.4153 5.32167 14.0516 5.75 14.0041C8.96458 13.6482 11.05 13.6803 14.2575 14.012C14.4177 14.0288 14.5695 14.0919 14.6944 14.1936C14.8193 14.2953 14.9119 14.4311 14.9608 14.5845C15.0098 14.738 15.013 14.9023 14.9701 15.0576C14.9272 15.2128 14.84 15.3522 14.7192 15.4587C10.9338 18.7582 8.77042 18.7128 5.26667 15.462C5.09583 15.3037 5 15.0787 5 14.8462V14.8457Z" fill="black"/>
<path fill-rule="evenodd" clip-rule="evenodd" d="M14.2172 14.4251C11.0351 14.0959 8.97969 14.0651 5.79802 14.4171C5.69329 14.4293 5.59674 14.4798 5.52686 14.5587C5.45697 14.6377 5.41867 14.7396 5.41927 14.8451C5.41927 14.9642 5.46886 15.0771 5.55261 15.1555C7.28927 16.7663 8.60511 17.4942 9.89136 17.4988C11.1822 17.5034 12.5689 16.7813 14.448 15.1438C14.5077 15.0907 14.5507 15.0213 14.5717 14.9442C14.5928 14.8671 14.5909 14.7856 14.5665 14.7095C14.542 14.6334 14.496 14.566 14.434 14.5156C14.372 14.4652 14.2967 14.4339 14.2172 14.4255V14.4251ZM5.70677 13.5888C8.95511 13.2292 11.0709 13.2617 14.3034 13.5963C14.5444 13.6215 14.7728 13.7163 14.9607 13.8693C15.1485 14.0222 15.2877 14.2267 15.3612 14.4575C15.4347 14.6884 15.4393 14.9356 15.3744 15.1691C15.3095 15.4025 15.178 15.6119 14.9959 15.7717C13.0897 17.4334 11.5022 18.3384 9.88885 18.3321C8.27094 18.3263 6.75344 17.4059 4.98636 15.7663C4.85984 15.6485 4.75898 15.5058 4.69008 15.3472C4.62119 15.1886 4.58573 15.0175 4.58594 14.8446C4.58533 14.534 4.69936 14.234 4.90617 14.0022C5.11299 13.7704 5.39806 13.6231 5.70677 13.5884V13.5888Z" fill="black"/>
<path d="M13.3346 8.33333C13.3346 9.21739 12.9834 10.0652 12.3583 10.6904C11.7332 11.3155 10.8854 11.6667 10.0013 11.6667C9.11725 11.6667 8.2694 11.3155 7.64428 10.6904C7.01916 10.0652 6.66797 9.21739 6.66797 8.33333C6.66797 7.44928 7.01916 6.60143 7.64428 5.97631C8.2694 5.35119 9.11725 5 10.0013 5C10.8854 5 11.7332 5.35119 12.3583 5.97631C12.9834 6.60143 13.3346 7.44928 13.3346 8.33333Z" fill="black"/>
<path fill-rule="evenodd" clip-rule="evenodd" d="M10.0013 10.8333C10.6643 10.8333 11.3002 10.5699 11.7691 10.1011C12.2379 9.63226 12.5013 8.99637 12.5013 8.33333C12.5013 7.67029 12.2379 7.03441 11.7691 6.56557C11.3002 6.09673 10.6643 5.83333 10.0013 5.83333C9.33826 5.83333 8.70238 6.09673 8.23353 6.56557C7.76469 7.03441 7.5013 7.67029 7.5013 8.33333C7.5013 8.99637 7.76469 9.63226 8.23353 10.1011C8.70238 10.5699 9.33826 10.8333 10.0013 10.8333ZM10.0013 11.6667C10.8854 11.6667 11.7332 11.3155 12.3583 10.6904C12.9834 10.0652 13.3346 9.21739 13.3346 8.33333C13.3346 7.44928 12.9834 6.60143 12.3583 5.97631C11.7332 5.35119 10.8854 5 10.0013 5C9.11725 5 8.2694 5.35119 7.64428 5.97631C7.01916 6.60143 6.66797 7.44928 6.66797 8.33333C6.66797 9.21739 7.01916 10.0652 7.64428 10.6904C8.2694 11.3155 9.11725 11.6667 10.0013 11.6667Z" fill="black"/>
</g>
</svg>
