<svg width="24" height="25" viewBox="0 0 24 25" fill="none" xmlns="http://www.w3.org/2000/svg">
<path d="M21.5561 9.24586C21.4422 8.8225 21.219 8.43648 20.909 8.12647C20.599 7.81645 20.213 7.5933 19.7896 7.47936C18.6326 7.03236 7.42362 6.81336 4.17162 7.49186C3.7482 7.60585 3.36215 7.82907 3.05212 8.13918C2.7421 8.44929 2.51899 8.8354 2.40512 9.25886C1.88262 11.5504 1.84312 16.5044 2.41812 18.8474C2.53206 19.2707 2.75521 19.6567 3.06523 19.9668C3.37525 20.2768 3.76126 20.4999 4.18462 20.6139C6.47612 21.1414 17.3701 21.2154 19.8026 20.6139C20.226 20.4999 20.612 20.2768 20.922 19.9668C21.232 19.6567 21.4552 19.2707 21.5691 18.8474C22.1261 16.3509 22.1656 11.7039 21.5561 9.24586V9.24586Z" stroke="white" stroke-linecap="round" stroke-linejoin="round"/>
<path d="M15.2821 14.0463L10.0586 11.0508V17.0418L15.2821 14.0463Z" stroke="white" stroke-linecap="round" stroke-linejoin="round"/>
</svg>
